<svg version="1.1" id="Layer_1" xmlns="http://www.w3.org/2000/svg" xmlns:xlink="http://www.w3.org/1999/xlink" x="0px" y="0px"
	 width="100%" viewBox="0 0 200 200" enable-background="new 0 0 200 200" xml:space="preserve">
<path fill="#005CD2" opacity="1.000000" stroke="none" 
	d="
M1.000000,152.000000 
	C1.000000,122.645775 1.000000,93.291542 1.328289,63.376602 
	C3.168788,61.110207 4.997783,59.592606 6.140663,57.667645 
	C12.506240,46.946060 19.693041,36.816853 28.969181,28.465887 
	C41.493465,17.190739 56.104752,9.493185 72.268646,4.666048 
	C74.663765,3.950777 76.763565,2.246639 79.000000,1.000000 
	C79.444443,1.000000 79.888893,1.000000 80.798645,1.285590 
	C82.509308,1.380787 83.754654,1.190393 85.000000,1.000000 
	C96.354225,1.000000 107.708458,1.000000 119.667313,1.326210 
	C121.811142,2.503914 123.269333,3.586072 124.905731,4.160906 
	C128.820908,5.536221 132.857666,6.564095 136.778198,7.925622 
	C149.504242,12.345138 160.469574,20.087421 170.756836,28.286831 
	C177.557297,33.707108 182.551926,41.608559 187.637497,48.899658 
	C192.051407,55.227844 195.439148,62.269775 199.343735,68.959297 
	C199.635056,69.458405 200.435974,69.660065 201.000000,70.000000 
	C201.000000,95.354225 201.000000,120.708458 200.669739,146.624725 
	C199.172226,148.521820 197.656403,149.683167 196.891159,151.218582 
	C188.389313,168.277054 177.154663,183.017075 161.443939,194.137909 
	C158.712250,196.071533 156.468903,198.695099 154.000000,201.000000 
	C145.645767,201.000000 137.291534,201.000000 128.566101,200.663666 
	C130.050583,199.078979 131.784210,197.565521 133.789551,196.642273 
	C137.087738,195.123779 140.909088,194.525024 143.899506,192.593536 
	C154.582565,185.693497 165.296036,179.197983 173.425095,168.595779 
	C182.127579,157.245712 189.148727,145.108780 192.329407,131.634171 
	C195.020126,120.235260 195.464554,107.841957 194.388474,96.119568 
	C192.449341,74.995300 183.482773,56.435322 168.549957,41.130733 
	C153.971542,26.189388 136.533066,16.378214 115.658585,13.519889 
	C108.607452,12.554383 101.385460,11.853560 94.310356,12.252323 
	C79.902138,13.064386 66.356354,17.013735 53.519165,24.063463 
	C39.126572,31.967365 27.798876,43.007126 19.019791,56.419823 
	C6.968038,74.832497 2.758413,95.619308 5.079398,117.359573 
	C8.953202,153.644852 28.247173,179.117554 61.074455,194.656586 
	C64.867340,196.451981 68.365303,198.870422 72.000000,201.000000 
	C63.645767,201.000000 55.291534,201.000000 46.375763,200.670593 
	C42.006908,196.982925 38.354790,193.426285 34.363121,190.303680 
	C22.507666,181.029373 12.487311,170.281281 5.713010,156.664490 
	C4.781273,154.791626 2.601808,153.539505 1.000000,152.000000 
z"/>
<path fill="#0064D6" opacity="1.000000" stroke="none" 
	d="
M72.468658,201.000000 
	C68.365303,198.870422 64.867340,196.451981 61.074455,194.656586 
	C28.247173,179.117554 8.953202,153.644852 5.079398,117.359573 
	C2.758413,95.619308 6.968038,74.832497 19.019791,56.419823 
	C27.798876,43.007126 39.126572,31.967365 53.519165,24.063463 
	C66.356354,17.013735 79.902138,13.064386 94.310356,12.252323 
	C101.385460,11.853560 108.607452,12.554383 115.658585,13.519889 
	C136.533066,16.378214 153.971542,26.189388 168.549957,41.130733 
	C183.482773,56.435322 192.449341,74.995300 194.388474,96.119568 
	C195.464554,107.841957 195.020126,120.235260 192.329407,131.634171 
	C189.148727,145.108780 182.127579,157.245712 173.425095,168.595779 
	C165.296036,179.197983 154.582565,185.693497 143.899506,192.593536 
	C140.909088,194.525024 137.087738,195.123779 133.789551,196.642273 
	C131.784210,197.565521 130.050583,199.078979 128.097443,200.663666 
	C109.645775,201.000000 91.291542,201.000000 72.468658,201.000000 
M166.745392,159.061142 
	C172.299591,159.865067 172.582550,159.528290 171.203583,153.448242 
	C172.129761,152.752777 173.055923,152.057327 174.515961,150.910660 
	C172.972351,146.940140 171.428741,142.969604 170.374619,138.889511 
	C171.582809,140.259323 172.791000,141.629120 174.340607,143.525970 
	C175.607285,145.290680 177.049026,146.248810 178.628220,143.966431 
	C179.841568,142.212860 181.310593,140.413330 181.799026,138.421646 
	C183.450974,131.685516 184.929092,124.890717 186.088715,118.053062 
	C188.973862,101.040977 185.531708,84.925911 178.240265,69.588608 
	C167.245239,46.461010 148.896973,31.696711 124.700562,24.130522 
	C109.783997,19.466122 94.446800,19.417376 79.353401,22.809212 
	C61.722870,26.771196 46.965595,35.753319 34.712448,49.406200 
	C19.851780,65.964478 12.491625,85.677788 12.413396,107.078102 
	C12.322316,131.993896 21.536285,153.979156 40.608330,171.336258 
	C50.286430,180.144104 60.981647,186.603210 73.210648,190.969635 
	C82.232590,194.190964 91.539978,193.627487 100.821945,194.216675 
	C113.469154,195.019485 125.393982,192.563293 136.315262,186.569931 
	C144.709198,181.963486 152.654800,176.401489 160.248764,170.549423 
	C162.989777,168.437119 164.126770,164.243332 165.998413,160.333282 
	C165.999756,159.889191 166.001099,159.445114 166.745392,159.061142 
M175.527298,147.498398 
	C175.527298,147.498398 175.487915,147.512619 175.527298,147.498398 
z"/>
<path fill="#0053CD" opacity="1.000000" stroke="none" 
	d="
M201.000000,69.531349 
	C200.435974,69.660065 199.635056,69.458405 199.343735,68.959297 
	C195.439148,62.269775 192.051407,55.227844 187.637497,48.899658 
	C182.551926,41.608559 177.557297,33.707108 170.756836,28.286831 
	C160.469574,20.087421 149.504242,12.345138 136.778198,7.925622 
	C132.857666,6.564095 128.820908,5.536221 124.905731,4.160906 
	C123.269333,3.586072 121.811142,2.503914 120.135971,1.326210 
	C130.354233,1.000000 140.708450,1.000000 151.625854,1.332102 
	C153.534760,2.812996 154.791367,4.091320 156.241165,5.088890 
	C163.840515,10.317768 171.849625,15.029812 178.993942,20.813784 
	C183.803452,24.707506 187.324554,30.164936 191.593048,34.764133 
	C194.579117,37.981579 197.854065,40.930923 201.000000,44.000004 
	C201.000000,52.354233 201.000000,60.708466 201.000000,69.531349 
z"/>
<path fill="#0054CD" opacity="1.000000" stroke="none" 
	d="
M78.531342,1.000000 
	C76.763565,2.246639 74.663765,3.950777 72.268646,4.666048 
	C56.104752,9.493185 41.493465,17.190739 28.969181,28.465887 
	C19.693041,36.816853 12.506240,46.946060 6.140663,57.667645 
	C4.997783,59.592606 3.168788,61.110207 1.328289,62.907944 
	C1.000000,56.312355 1.000000,49.624710 1.331846,42.382526 
	C4.189473,39.044594 6.872121,36.386375 9.211798,33.454468 
	C16.398090,24.449144 24.236105,16.237345 34.241581,10.222821 
	C38.723034,7.528913 42.760857,4.097004 47.000000,1.000000 
	C57.354229,1.000000 67.708458,1.000000 78.531342,1.000000 
z"/>
<path fill="#0053CD" opacity="1.000000" stroke="none" 
	d="
M154.468536,201.000000 
	C156.468903,198.695099 158.712250,196.071533 161.443939,194.137909 
	C177.154663,183.017075 188.389313,168.277054 196.891159,151.218582 
	C197.656403,149.683167 199.172226,148.521820 200.669739,147.093384 
	C201.000000,155.354233 201.000000,163.708466 200.668594,172.616989 
	C198.804016,174.379333 197.078094,175.409409 195.770477,176.825714 
	C189.535477,183.579041 183.387329,190.413452 177.280289,197.283020 
	C176.329514,198.352509 175.750793,199.752731 175.000000,201.000000 
	C168.312363,201.000000 161.624710,201.000000 154.468536,201.000000 
z"/>
<path fill="#004BC8" opacity="1.000000" stroke="none" 
	d="
M201.000000,43.531601 
	C197.854065,40.930923 194.579117,37.981579 191.593048,34.764133 
	C187.324554,30.164936 183.803452,24.707506 178.993942,20.813784 
	C171.849625,15.029812 163.840515,10.317768 156.241165,5.088890 
	C154.791367,4.091320 153.534760,2.812996 152.094513,1.332102 
	C159.354248,1.000000 166.708496,1.000000 174.624359,1.329394 
	C175.531631,2.213130 175.775208,2.878263 176.238388,3.305068 
	C182.509903,9.084218 188.747131,14.903961 195.150391,20.534473 
	C196.822876,22.005121 199.035461,22.861502 201.000000,24.000000 
	C201.000000,30.354399 201.000000,36.708797 201.000000,43.531601 
z"/>
<path fill="#0054CE" opacity="1.000000" stroke="none" 
	d="
M1.000000,152.468536 
	C2.601808,153.539505 4.781273,154.791626 5.713010,156.664490 
	C12.487311,170.281281 22.507666,181.029373 34.363121,190.303680 
	C38.354790,193.426285 42.006908,196.982925 45.907112,200.670593 
	C39.645603,201.000000 33.291203,201.000000 26.437113,200.642090 
	C23.272913,197.006073 20.689470,193.657761 17.925312,190.465973 
	C13.541882,185.404419 9.081004,180.407608 4.549391,175.478561 
	C3.595802,174.441345 2.194827,173.815430 0.999999,173.000000 
	C1.000000,166.312363 1.000000,159.624710 1.000000,152.468536 
z"/>
<path fill="#004CC8" opacity="1.000000" stroke="none" 
	d="
M46.531422,1.000000 
	C42.760857,4.097004 38.723034,7.528913 34.241581,10.222821 
	C24.236105,16.237345 16.398090,24.449144 9.211798,33.454468 
	C6.872121,36.386375 4.189473,39.044594 1.331846,41.913994 
	C1.000000,35.978848 1.000000,29.957697 1.330919,23.381332 
	C8.907166,16.568708 16.178827,10.341182 23.361103,4.012217 
	C24.166664,3.302363 24.465940,2.017962 25.000000,1.000000 
	C32.020947,1.000000 39.041897,1.000000 46.531422,1.000000 
z"/>
<path fill="#004AC7" opacity="1.000000" stroke="none" 
	d="
M175.468674,201.000000 
	C175.750793,199.752731 176.329514,198.352509 177.280289,197.283020 
	C183.387329,190.413452 189.535477,183.579041 195.770477,176.825714 
	C197.078094,175.409409 198.804016,174.379333 200.668594,173.085632 
	C201.000000,182.257034 201.000000,191.514084 201.000000,201.000000 
	C192.647171,201.000000 184.292252,201.000000 175.468674,201.000000 
z"/>
<path fill="#004BC8" opacity="1.000000" stroke="none" 
	d="
M0.999999,173.468658 
	C2.194827,173.815430 3.595802,174.441345 4.549391,175.478561 
	C9.081004,180.407608 13.541882,185.404419 17.925312,190.465973 
	C20.689470,193.657761 23.272913,197.006073 25.968710,200.642090 
	C17.736082,201.000000 9.472164,201.000000 1.000000,201.000000 
	C1.000000,191.980179 1.000000,182.958740 0.999999,173.468658 
z"/>
<path fill="#0045C4" opacity="1.000000" stroke="none" 
	d="
M201.000000,23.531261 
	C199.035461,22.861502 196.822876,22.005121 195.150391,20.534473 
	C188.747131,14.903961 182.509903,9.084218 176.238388,3.305068 
	C175.775208,2.878263 175.531631,2.213130 175.092987,1.329394 
	C183.588501,1.000000 192.176987,1.000000 201.000000,1.000000 
	C201.000000,8.352521 201.000000,15.707523 201.000000,23.531261 
z"/>
<path fill="#0045C4" opacity="1.000000" stroke="none" 
	d="
M24.531307,1.000000 
	C24.465940,2.017962 24.166664,3.302363 23.361103,4.012217 
	C16.178827,10.341182 8.907166,16.568708 1.330919,22.913059 
	C1.000000,15.737160 1.000000,8.474319 1.000000,1.000000 
	C8.686251,1.000000 16.374434,1.000000 24.531307,1.000000 
z"/>
<path fill="#0054CD" opacity="1.000000" stroke="none" 
	d="
M84.600006,1.000000 
	C83.754654,1.190393 82.509308,1.380787 81.131981,1.285590 
	C82.066673,1.000000 83.133339,1.000000 84.600006,1.000000 
z"/>
<path fill="#006ADA" opacity="1.000000" stroke="none" 
	d="
M165.995728,160.999390 
	C164.126770,164.243332 162.989777,168.437119 160.248764,170.549423 
	C152.654800,176.401489 144.709198,181.963486 136.315262,186.569931 
	C125.393982,192.563293 113.469154,195.019485 100.821945,194.216675 
	C91.539978,193.627487 82.232590,194.190964 73.210648,190.969635 
	C60.981647,186.603210 50.286430,180.144104 40.608330,171.336258 
	C21.536285,153.979156 12.322316,131.993896 12.413396,107.078102 
	C12.491625,85.677788 19.851780,65.964478 34.712448,49.406200 
	C46.965595,35.753319 61.722870,26.771196 79.353401,22.809212 
	C94.446800,19.417376 109.783997,19.466122 124.700562,24.130522 
	C148.896973,31.696711 167.245239,46.461010 178.240265,69.588608 
	C185.531708,84.925911 188.973862,101.040977 186.088715,118.053062 
	C184.929092,124.890717 183.450974,131.685516 181.799026,138.421646 
	C181.310593,140.413330 179.841568,142.212860 178.628220,143.966431 
	C177.049026,146.248810 175.607285,145.290680 174.311798,142.924652 
	C174.522797,140.882599 174.762619,139.441879 175.305054,137.867661 
	C176.405502,135.489395 177.203369,133.244629 178.001434,130.750183 
	C178.001648,130.500534 178.001831,130.001221 178.327286,129.963882 
	C179.434952,129.284363 180.217178,128.642181 180.999573,127.666672 
	C180.999832,126.888893 180.999924,126.444443 181.197174,125.669540 
	C181.929352,121.559380 182.464371,117.779694 182.999557,113.555832 
	C182.999619,110.741112 182.999496,108.370560 182.999542,105.549210 
	C182.666473,101.732285 182.333237,98.366142 181.999985,94.666672 
	C181.999786,93.888893 181.999588,93.444443 181.927826,92.725731 
	C181.570847,91.967644 181.285431,91.483818 180.999985,90.666664 
	C180.999786,89.888893 180.999588,89.444443 180.927826,88.725739 
	C180.570847,87.967644 180.285431,87.483818 180.000000,86.666672 
	C179.999786,85.888893 179.999588,85.444443 179.926910,84.670975 
	C178.903152,83.227661 177.951874,82.113373 177.000488,80.749367 
	C177.000381,80.499641 177.000046,80.000198 176.989944,79.615021 
	C175.653641,77.486183 174.327423,75.742523 173.001068,73.582367 
	C173.000214,71.777527 172.999496,70.389175 172.892883,68.722290 
	C172.191299,67.962524 171.595657,67.481308 170.885788,66.683838 
	C169.514175,64.245277 168.256790,62.122978 166.893387,59.722137 
	C166.191788,58.962177 165.596207,58.480755 164.963455,57.673698 
	C164.284195,56.565475 163.642105,55.782890 162.893646,54.721947 
	C162.191544,53.962444 161.595764,53.481297 160.869614,52.704910 
	C159.826355,51.939293 158.913483,51.468914 157.848587,50.817780 
	C157.483032,50.404408 157.251053,50.191933 156.774399,49.747131 
	C154.156830,45.988522 152.339539,41.751171 146.963638,41.673561 
	C146.284073,40.565540 145.641739,39.783138 144.666260,39.000511 
	C143.888962,39.000008 143.444778,38.999729 142.963440,38.673828 
	C142.284180,37.565464 141.642090,36.782734 140.689133,35.937355 
	C139.585922,35.583031 138.793564,35.291359 137.863968,34.693474 
	C135.484177,33.258648 133.241638,32.130035 130.642365,30.925932 
	C128.857086,30.566935 127.428543,30.283430 125.873077,29.683731 
	C124.164101,28.578510 122.582047,27.789484 120.666672,27.000334 
	C119.888893,27.000191 119.444443,27.000172 118.657623,26.849983 
	C115.543495,26.133333 112.771751,25.566854 109.725708,25.071983 
	C108.967613,25.429132 108.483810,25.714670 107.616409,26.009373 
	C105.488983,26.345255 103.745148,26.671970 101.978729,26.719725 
	C101.303993,25.961037 100.651848,25.481306 99.583130,25.001438 
	C97.778015,25.001373 96.389465,25.001444 94.572357,25.001085 
	C92.429199,25.000614 90.714600,25.000574 88.620354,25.032511 
	C85.827141,25.709682 83.413567,26.354877 80.666672,27.000072 
	C79.888893,27.000200 79.444443,27.000330 78.674332,27.037483 
	C77.565773,27.716290 76.782890,28.358068 76.000000,28.999924 
	C76.000000,29.000000 76.000000,28.999924 75.705780,29.045601 
	C73.941040,29.394053 72.470512,29.696829 70.622498,30.008904 
	C68.496475,31.012070 66.747932,32.005939 64.721039,33.106041 
	C63.961700,33.807953 63.480713,34.403625 62.619514,35.009018 
	C59.826252,36.345875 57.413200,37.673012 54.674442,39.037148 
	C53.565899,39.716171 52.783070,40.358189 51.750359,41.000408 
	C51.500481,41.000607 51.000725,41.000893 50.687729,41.112717 
	C48.916618,42.483131 47.458500,43.741718 45.697456,45.072502 
	C44.596924,45.763168 43.799316,46.381630 42.820343,47.151939 
	C42.405701,47.517292 42.192711,47.749416 41.721661,48.179619 
	C39.962494,50.239582 38.481667,52.120075 37.000687,54.250465 
	C37.000534,54.500359 37.000153,55.000153 36.671173,55.095482 
	C35.561512,56.460594 34.780830,57.730373 33.848198,59.181145 
	C33.482738,59.595032 33.250740,59.807770 32.721798,60.106506 
	C31.962479,60.808609 31.481621,61.404560 30.816833,62.299229 
	C29.755171,64.731857 28.877436,66.865776 27.684126,69.124313 
	C24.595322,75.336571 20.923038,81.184921 19.226433,87.559128 
	C15.032301,103.316620 16.319448,119.148102 21.273149,134.594391 
	C23.467213,141.435760 25.749592,148.429550 32.009880,153.384125 
	C32.656929,155.425339 32.861588,157.502319 33.998943,158.673630 
	C43.839352,168.807709 54.032864,178.307175 67.498161,183.895172 
	C84.115074,190.791046 101.206818,191.966537 118.342293,188.354614 
	C134.393143,184.971298 148.144104,176.447708 159.843094,164.771576 
	C161.499237,163.118668 163.925766,162.237656 165.995728,160.999390 
z"/>
<path fill="#006EDD" opacity="1.000000" stroke="none" 
	d="
M147.000854,41.999184 
	C152.339539,41.751171 154.156830,45.988522 156.845917,50.021458 
	C157.429077,51.032120 157.714539,51.515984 158.263443,52.184994 
	C159.351257,52.580147 160.175629,52.790150 161.000000,53.000153 
	C161.595764,53.481297 162.191544,53.962444 162.901016,55.075466 
	C163.343155,56.804924 163.671570,57.902500 164.095825,59.251617 
	C165.127548,59.668995 166.063477,59.834835 166.999390,60.000675 
	C168.256790,62.122978 169.514175,64.245277 170.991913,66.962265 
	C171.807770,68.038246 172.403275,68.519539 172.998779,69.000839 
	C172.999496,70.389175 173.000214,71.777527 173.075119,73.895485 
	C173.766205,75.750061 174.383102,76.875031 175.011444,78.354088 
	C175.681931,79.805656 176.340958,80.903137 177.000000,82.375534 
	C177.000000,83.500305 177.000000,84.250153 177.106232,85.278381 
	C177.808090,86.037949 178.403748,86.519127 178.999390,87.333542 
	C178.999405,88.111076 178.999405,88.555389 178.886200,89.203041 
	C179.181793,89.937691 179.590591,90.468994 179.999405,91.333534 
	C179.999405,92.111076 179.999405,92.555389 179.841797,93.236069 
	C180.122604,94.315193 180.560989,95.157936 180.999374,96.454742 
	C180.999374,99.939102 180.999390,102.969398 180.805298,106.326630 
	C180.740585,109.102371 180.869980,111.551193 180.999405,114.374924 
	C180.999405,115.499687 180.999405,116.249527 180.704315,117.130028 
	C179.939514,118.173798 179.469757,119.086899 179.000000,120.399994 
	C179.000000,121.866661 179.000000,122.933327 178.810059,124.292450 
	C178.413605,125.723274 178.207108,126.861633 178.000580,128.333527 
	C178.000977,129.111771 178.001404,129.556503 178.001831,130.001221 
	C178.001831,130.001221 178.001648,130.500534 177.722595,130.970428 
	C176.629852,133.627258 175.816147,135.814194 175.002441,138.001144 
	C174.762619,139.441879 174.522797,140.882599 174.141083,142.661133 
	C172.791000,141.629120 171.582809,140.259323 169.874771,138.844177 
	C169.183975,138.289490 168.993027,137.780106 169.121857,137.087646 
	C170.883987,134.324127 173.032898,131.902405 173.653946,129.137512 
	C177.650818,111.343445 177.428085,93.635345 169.801788,76.793434 
	C157.753555,50.186069 136.539230,35.329292 107.919922,31.409502 
	C92.164780,29.251625 76.928787,32.929550 63.016190,40.273869 
	C52.351849,45.903458 43.812195,54.363468 36.869507,64.451241 
	C20.926613,87.616379 20.312910,112.136559 29.797995,137.654510 
	C30.295076,138.991806 31.949503,139.898911 33.123398,141.339172 
	C33.464314,142.758728 33.746960,143.845444 33.871468,145.179321 
	C33.141911,145.950989 32.570496,146.475494 31.667595,146.905670 
	C30.336739,145.760040 28.982201,144.877441 28.390768,143.632355 
	C17.965399,121.684532 16.623814,99.346771 25.669138,76.579956 
	C26.642073,74.131111 27.232067,71.530113 27.999701,68.999695 
	C28.877436,66.865776 29.755171,64.731857 31.095173,62.192913 
	C32.038380,61.192039 32.519318,60.596195 33.000259,60.000351 
	C33.250740,59.807770 33.482738,59.595032 34.200478,59.126053 
	C35.469856,57.593369 36.235004,56.296761 37.000153,55.000153 
	C37.000153,55.000153 37.000534,54.500359 37.328876,54.168060 
	C39.104813,53.223793 40.552406,52.611824 42.262039,51.830688 
	C44.350857,50.278587 45.556793,48.832027 43.001709,47.000095 
	C43.799316,46.381630 44.596924,45.763168 46.076332,45.061401 
	C48.172333,43.652363 49.586529,42.326626 51.000725,41.000893 
	C51.000725,41.000893 51.500481,41.000607 52.076035,40.963345 
	C53.434441,40.284107 54.217297,39.642128 55.000153,39.000153 
	C57.413200,37.673012 59.826252,36.345875 62.881893,35.151199 
	C65.349754,34.189186 67.175034,33.094707 69.385941,31.989956 
	C71.847717,30.986431 73.923859,29.993177 76.000000,28.999924 
	C76.000000,28.999924 76.000000,29.000000 76.375000,29.000080 
	C77.500000,29.000217 78.250000,29.000277 79.203293,29.113535 
	C79.937866,28.818155 80.469139,28.409573 81.370728,27.994076 
	C84.160690,27.991312 86.580345,27.995464 89.404205,27.998745 
	C92.064552,27.909412 94.652008,28.395103 95.000916,25.001516 
	C96.389465,25.001444 97.778015,25.001373 99.689537,25.279682 
	C100.808777,26.038269 101.405045,26.518476 102.001312,26.998684 
	C103.745148,26.671970 105.488983,26.345255 107.722641,26.287752 
	C108.808311,27.037840 109.404152,27.518717 110.388336,27.997829 
	C113.517639,27.997707 116.258614,27.999350 119.105972,28.279236 
	C119.808243,29.038183 120.404121,29.518887 121.416664,29.999680 
	C123.222221,29.999823 124.611107,29.999874 126.000000,29.999924 
	C127.428543,30.283430 128.857086,30.566935 130.721283,31.239016 
	C133.104416,32.751827 135.051895,33.876064 137.149323,35.306068 
	C138.532639,36.074863 139.766006,36.537888 141.105850,37.279205 
	C141.808411,38.038147 142.404510,38.518803 143.000610,38.999454 
	C143.444778,38.999729 143.888962,39.000008 144.703461,39.326141 
	C145.716141,40.434391 146.358490,41.216789 147.000854,41.999184 
z"/>
<path fill="#026DDA" opacity="1.000000" stroke="none" 
	d="
M31.999081,147.000000 
	C32.570496,146.475494 33.141911,145.950989 34.217842,145.203857 
	C35.185642,144.988007 35.648933,144.994766 36.334557,145.032410 
	C36.556896,145.063263 36.992107,145.173447 37.282482,145.328308 
	C38.423279,145.605392 39.273701,145.727615 40.534470,145.919754 
	C41.465527,146.705475 41.986237,147.421265 42.506950,148.137070 
	C41.557251,148.691696 40.618713,149.680466 39.655407,149.705215 
	C37.960777,149.748749 36.251007,149.202957 34.547573,148.903946 
	C34.448837,149.155197 34.350101,149.406448 34.251366,149.657700 
	C35.314041,150.249115 36.376717,150.840515 37.248688,151.533661 
	C37.038857,152.090073 37.019733,152.544724 37.085686,153.335587 
	C38.790634,155.957809 39.946049,158.913986 42.110573,160.414108 
	C51.603508,166.993057 60.770599,174.539612 71.194153,179.176331 
	C93.966255,189.306046 116.732300,186.601593 138.071320,174.270844 
	C146.808121,169.222290 154.619690,162.572571 163.820587,155.954697 
	C160.611572,154.160828 158.803650,153.150177 157.187103,151.982086 
	C157.631302,151.611603 157.860107,151.375305 158.295593,151.076416 
	C158.526291,151.037048 158.984772,150.942795 159.410934,151.009201 
	C164.552094,151.171021 169.267105,151.266434 173.982101,151.361862 
	C173.055923,152.057327 172.129761,152.752777 170.772278,153.808807 
	C168.894791,155.779922 167.448624,157.390472 166.002441,159.001022 
	C166.001099,159.445114 165.999756,159.889191 165.997070,160.666321 
	C163.925766,162.237656 161.499237,163.118668 159.843094,164.771576 
	C148.144104,176.447708 134.393143,184.971298 118.342293,188.354614 
	C101.206818,191.966537 84.115074,190.791046 67.498161,183.895172 
	C54.032864,178.307175 43.839352,168.807709 33.998943,158.673630 
	C32.861588,157.502319 32.656929,155.425339 32.009941,152.955658 
	C31.999723,150.428711 31.999405,148.714355 31.999081,147.000000 
z"/>
<path fill="#D4F1FD" opacity="1.000000" stroke="none" 
	d="
M174.249023,151.136261 
	C169.267105,151.266434 164.552094,151.171021 159.494293,150.701599 
	C159.477859,149.580322 159.804230,148.833038 160.401672,147.936646 
	C161.063248,146.851105 161.453705,145.914673 162.063934,144.699097 
	C164.349152,141.951721 163.584961,136.900696 168.813782,137.302521 
	C168.840729,137.309723 168.802078,137.270737 168.802078,137.270737 
	C168.993027,137.780106 169.183975,138.289490 169.630035,138.898972 
	C171.428741,142.969604 172.972351,146.940140 174.249023,151.136261 
z"/>
<path fill="#006ADA" opacity="1.000000" stroke="none" 
	d="
M166.373917,159.031082 
	C167.448624,157.390472 168.894791,155.779922 170.669250,154.084808 
	C172.582550,159.528290 172.299591,159.865067 166.373917,159.031082 
z"/>
<path fill="#006ADA" opacity="1.000000" stroke="none" 
	d="
M175.507599,147.505508 
	C175.487915,147.512619 175.527298,147.498398 175.507599,147.505508 
z"/>
<path fill="#006CDB" opacity="1.000000" stroke="none" 
	d="
M31.667597,146.905670 
	C31.999405,148.714355 31.999723,150.428711 31.999983,152.571533 
	C25.749592,148.429550 23.467213,141.435760 21.273149,134.594391 
	C16.319448,119.148102 15.032301,103.316620 19.226433,87.559128 
	C20.923038,81.184921 24.595322,75.336571 27.684126,69.124313 
	C27.232067,71.530113 26.642073,74.131111 25.669138,76.579956 
	C16.623814,99.346771 17.965399,121.684532 28.390768,143.632355 
	C28.982201,144.877441 30.336739,145.760040 31.667597,146.905670 
z"/>
<path fill="#006CDB" opacity="1.000000" stroke="none" 
	d="
M179.000000,124.000000 
	C179.000000,122.933327 179.000000,121.866661 179.295166,120.269470 
	C180.060028,118.825752 180.529709,117.912560 180.999390,116.999367 
	C180.999405,116.249527 180.999405,115.499687 181.332748,114.374924 
	C182.110519,114.000000 182.554947,114.000000 182.999390,114.000000 
	C182.464371,117.779694 181.929352,121.559380 180.990295,125.476471 
	C180.057480,125.075905 179.528748,124.537956 179.000000,124.000000 
z"/>
<path fill="#006CDB" opacity="1.000000" stroke="none" 
	d="
M182.999557,113.555832 
	C182.554947,114.000000 182.110519,114.000000 181.332733,114.000000 
	C180.869980,111.551193 180.740585,109.102371 181.138641,106.326706 
	C182.110519,105.999908 182.554947,105.999954 182.999390,106.000000 
	C182.999496,108.370560 182.999619,110.741112 182.999557,113.555832 
z"/>
<path fill="#006CDB" opacity="1.000000" stroke="none" 
	d="
M182.999542,105.549210 
	C182.554947,105.999954 182.110519,105.999908 181.332733,105.999779 
	C180.999390,102.969398 180.999374,99.939102 181.151443,96.273666 
	C181.517197,95.405510 181.749344,95.192665 182.000000,95.000000 
	C182.333237,98.366142 182.666473,101.732285 182.999542,105.549210 
z"/>
<path fill="#006CDB" opacity="1.000000" stroke="none" 
	d="
M118.999588,28.000992 
	C116.258614,27.999350 113.517639,27.997707 110.388336,27.622931 
	C110.000000,26.499989 110.000000,25.750181 110.000000,25.000374 
	C112.771751,25.566854 115.543495,26.133333 118.657532,27.100193 
	C118.999748,27.667376 118.999672,27.834183 118.999588,28.000992 
z"/>
<path fill="#006CDB" opacity="1.000000" stroke="none" 
	d="
M175.305054,137.867661 
	C175.816147,135.814194 176.629852,133.627258 177.722382,131.220078 
	C177.203369,133.244629 176.405502,135.489395 175.305054,137.867661 
z"/>
<path fill="#006CDB" opacity="1.000000" stroke="none" 
	d="
M94.572357,25.001085 
	C94.652008,28.395103 92.064552,27.909412 89.404205,27.623863 
	C89.000000,26.500078 89.000000,25.750307 89.000000,25.000534 
	C90.714600,25.000574 92.429199,25.000614 94.572357,25.001085 
z"/>
<path fill="#006CDB" opacity="1.000000" stroke="none" 
	d="
M88.620354,25.032511 
	C89.000000,25.750307 89.000000,26.500078 89.000000,27.624735 
	C86.580345,27.995464 84.160690,27.991312 81.370605,27.743839 
	C81.000122,27.333708 81.000061,27.166891 81.000000,27.000076 
	C83.413567,26.354877 85.827141,25.709682 88.620354,25.032511 
z"/>
<path fill="#006CDB" opacity="1.000000" stroke="none" 
	d="
M136.999390,35.000305 
	C135.051895,33.876064 133.104416,32.751827 131.078003,31.314507 
	C133.241638,32.130035 135.484177,33.258648 137.613495,34.693630 
	C137.333328,35.000103 137.166367,35.000202 136.999390,35.000305 
z"/>
<path fill="#006CDB" opacity="1.000000" stroke="none" 
	d="
M42.000000,51.999847 
	C40.552406,52.611824 39.104813,53.223793 37.329029,53.918167 
	C38.481667,52.120075 39.962494,50.239582 41.721661,48.579582 
	C42.000000,49.866669 42.000000,50.933258 42.000000,51.999847 
z"/>
<path fill="#006CDB" opacity="1.000000" stroke="none" 
	d="
M69.000305,32.000229 
	C67.175034,33.094707 65.349754,34.189186 63.262104,35.141479 
	C63.480713,34.403625 63.961700,33.807953 65.057922,33.037090 
	C66.782112,32.574600 67.891052,32.287300 69.000000,32.000000 
	C69.000000,32.000000 69.000305,32.000229 69.000305,32.000229 
z"/>
<path fill="#006CDB" opacity="1.000000" stroke="none" 
	d="
M50.687729,41.112717 
	C49.586529,42.326626 48.172333,43.652363 46.379257,44.989204 
	C47.458500,43.741718 48.916618,42.483131 50.687729,41.112717 
z"/>
<path fill="#006CDB" opacity="1.000000" stroke="none" 
	d="
M175.000000,78.000000 
	C174.383102,76.875031 173.766205,75.750061 173.075256,74.311981 
	C174.327423,75.742523 175.653641,77.486183 176.783066,79.421906 
	C176.057526,79.075989 175.528763,78.537994 175.000000,78.000000 
z"/>
<path fill="#006CDB" opacity="1.000000" stroke="none" 
	d="
M125.873077,29.683731 
	C124.611107,29.999874 123.222221,29.999823 121.416664,29.624792 
	C121.000000,28.500027 121.000000,27.750242 121.000000,27.000458 
	C122.582047,27.789484 124.164101,28.578510 125.873077,29.683731 
z"/>
<path fill="#006CDB" opacity="1.000000" stroke="none" 
	d="
M75.705780,29.045601 
	C73.923859,29.993177 71.847717,30.986431 69.385941,31.989956 
	C69.000305,32.000229 69.000000,32.000000 69.193077,31.793098 
	C69.924095,31.057335 70.462044,30.528471 70.999985,29.999607 
	C72.470512,29.696829 73.941040,29.394053 75.705780,29.045601 
z"/>
<path fill="#006CDB" opacity="1.000000" stroke="none" 
	d="
M42.262039,51.830688 
	C42.000000,50.933258 42.000000,49.866669 42.000000,48.400116 
	C42.192711,47.749416 42.405701,47.517292 42.820343,47.151939 
	C45.556793,48.832027 44.350857,50.278587 42.262039,51.830688 
z"/>
<path fill="#006CDB" opacity="1.000000" stroke="none" 
	d="
M36.671173,55.095482 
	C36.235004,56.296761 35.469856,57.593369 34.352432,58.945065 
	C34.780830,57.730373 35.561512,56.460594 36.671173,55.095482 
z"/>
<path fill="#006CDB" opacity="1.000000" stroke="none" 
	d="
M177.000000,85.000000 
	C177.000000,84.250153 177.000000,83.500305 177.000122,82.125153 
	C177.000366,81.332916 177.000488,81.166000 177.000610,80.999084 
	C177.951874,82.113373 178.903152,83.227661 179.552002,84.670975 
	C178.499710,85.000000 177.749863,85.000000 177.000000,85.000000 
z"/>
<path fill="#006CDB" opacity="1.000000" stroke="none" 
	d="
M178.810059,124.292450 
	C179.528748,124.537956 180.057480,125.075905 180.793121,125.806931 
	C180.999924,126.444443 180.999832,126.888893 180.624725,127.666672 
	C179.500000,128.000000 178.750305,128.000000 178.000610,128.000000 
	C178.207108,126.861633 178.413605,125.723274 178.810059,124.292450 
z"/>
<path fill="#006CDB" opacity="1.000000" stroke="none" 
	d="
M70.622498,30.008904 
	C70.462044,30.528471 69.924095,31.057335 69.193077,31.793102 
	C67.891052,32.287300 66.782112,32.574600 65.336273,32.930855 
	C66.747932,32.005939 68.496475,31.012070 70.622498,30.008904 
z"/>
<path fill="#006CDB" opacity="1.000000" stroke="none" 
	d="
M164.000000,59.000076 
	C163.671570,57.902500 163.343155,56.804924 163.007355,55.353825 
	C163.642105,55.782890 164.284195,56.565475 164.811371,57.854786 
	C164.482788,58.594517 164.250641,58.807373 164.000000,59.000076 
z"/>
<path fill="#006CDB" opacity="1.000000" stroke="none" 
	d="
M181.999985,94.666672 
	C181.749344,95.192665 181.517197,95.405510 181.151459,95.819595 
	C180.560989,95.157936 180.122604,94.315193 180.175140,93.236160 
	C181.110519,92.999908 181.554947,92.999954 181.999390,93.000000 
	C181.999588,93.444443 181.999786,93.888893 181.999985,94.666672 
z"/>
<path fill="#006CDB" opacity="1.000000" stroke="none" 
	d="
M164.095825,59.251617 
	C164.250641,58.807373 164.482788,58.594517 164.848541,58.180420 
	C165.596207,58.480755 166.191788,58.962177 166.893387,59.722137 
	C166.063477,59.834835 165.127548,59.668995 164.095825,59.251617 
z"/>
<path fill="#006CDB" opacity="1.000000" stroke="none" 
	d="
M179.999390,91.000305 
	C179.590591,90.468994 179.181793,89.937691 179.219543,89.203125 
	C180.110519,88.999908 180.554947,88.999954 180.999390,89.000000 
	C180.999588,89.444443 180.999786,89.888893 180.749832,90.666733 
	C180.332932,91.000183 180.166153,91.000244 179.999390,91.000305 
z"/>
<path fill="#006CDB" opacity="1.000000" stroke="none" 
	d="
M54.674442,39.037151 
	C54.217297,39.642128 53.434441,40.284107 52.325912,40.963146 
	C52.783070,40.358189 53.565899,39.716171 54.674442,39.037151 
z"/>
<path fill="#006CDB" opacity="1.000000" stroke="none" 
	d="
M79.000000,29.000334 
	C78.250000,29.000277 77.500000,29.000217 76.375000,29.000004 
	C76.782890,28.358068 77.565773,27.716290 78.674332,27.370789 
	C79.000000,28.111488 79.000000,28.555912 79.000000,29.000334 
z"/>
<path fill="#006CDB" opacity="1.000000" stroke="none" 
	d="
M177.000488,80.749359 
	C177.000488,81.166000 177.000366,81.332916 177.000122,81.750229 
	C176.340958,80.903137 175.681931,79.805656 175.011444,78.354088 
	C175.528763,78.537994 176.057526,79.075989 176.793167,79.807083 
	C177.000046,80.000198 177.000381,80.499641 177.000488,80.749359 
z"/>
<path fill="#006CDB" opacity="1.000000" stroke="none" 
	d="
M79.203293,29.113535 
	C79.000000,28.555912 79.000000,28.111488 79.000000,27.333763 
	C79.444443,27.000330 79.888893,27.000200 80.666672,27.000072 
	C81.000061,27.166891 81.000122,27.333708 81.000298,27.750757 
	C80.469139,28.409573 79.937866,28.818155 79.203293,29.113535 
z"/>
<path fill="#006CDB" opacity="1.000000" stroke="none" 
	d="
M160.869614,52.704910 
	C160.175629,52.790150 159.351257,52.580147 158.263565,51.934666 
	C158.000366,51.332306 158.000488,51.165421 158.000610,50.998535 
	C158.913483,51.468914 159.826355,51.939293 160.869614,52.704910 
z"/>
<path fill="#006CDB" opacity="1.000000" stroke="none" 
	d="
M137.149323,35.306068 
	C137.166367,35.000202 137.333328,35.000103 137.750763,34.999840 
	C138.793564,35.291359 139.585922,35.583031 140.689011,36.187580 
	C140.999634,36.667278 140.999512,36.834095 140.999390,37.000916 
	C139.766006,36.537888 138.532639,36.074863 137.149323,35.306068 
z"/>
<path fill="#006CDB" opacity="1.000000" stroke="none" 
	d="
M141.105850,37.279205 
	C140.999512,36.834095 140.999634,36.667278 140.999878,36.250229 
	C141.642090,36.782734 142.284180,37.565464 142.963440,38.673828 
	C142.404510,38.518803 141.808411,38.038147 141.105850,37.279205 
z"/>
<path fill="#006CDB" opacity="1.000000" stroke="none" 
	d="
M146.963638,41.673565 
	C146.358490,41.216789 145.716141,40.434391 145.036591,39.326363 
	C145.641739,39.783138 146.284073,40.565540 146.963638,41.673565 
z"/>
<path fill="#006CDB" opacity="1.000000" stroke="none" 
	d="
M177.106232,85.278381 
	C177.749863,85.000000 178.499710,85.000000 179.624481,85.000000 
	C179.999588,85.444443 179.999786,85.888893 179.749847,86.666733 
	C179.332932,87.000183 179.166153,87.000244 178.999390,87.000305 
	C178.403748,86.519127 177.808090,86.037949 177.106232,85.278381 
z"/>
<path fill="#006CDB" opacity="1.000000" stroke="none" 
	d="
M178.000580,128.333527 
	C178.750305,128.000000 179.500000,128.000000 180.624542,128.000000 
	C180.217178,128.642181 179.434952,129.284363 178.327271,129.963882 
	C178.001404,129.556503 178.000977,129.111771 178.000580,128.333527 
z"/>
<path fill="#006CDB" opacity="1.000000" stroke="none" 
	d="
M120.666672,27.000336 
	C121.000000,27.750242 121.000000,28.500027 121.000000,29.624699 
	C120.404121,29.518887 119.808243,29.038183 119.105972,28.279236 
	C118.999672,27.834183 118.999748,27.667376 118.999908,27.250362 
	C119.444443,27.000172 119.888893,27.000191 120.666672,27.000336 
z"/>
<path fill="#006CDB" opacity="1.000000" stroke="none" 
	d="
M101.978729,26.719725 
	C101.405045,26.518476 100.808777,26.038269 100.106110,25.279819 
	C100.651848,25.481306 101.303993,25.961037 101.978729,26.719725 
z"/>
<path fill="#006CDB" opacity="1.000000" stroke="none" 
	d="
M109.725708,25.071983 
	C110.000000,25.750181 110.000000,26.499989 110.000000,27.624695 
	C109.404152,27.518717 108.808311,27.037840 108.106232,26.278587 
	C108.483810,25.714670 108.967613,25.429132 109.725708,25.071983 
z"/>
<path fill="#006CDB" opacity="1.000000" stroke="none" 
	d="
M179.999390,91.333542 
	C180.166153,91.000244 180.332932,91.000183 180.749847,91.000061 
	C181.285431,91.483818 181.570847,91.967644 181.927826,92.725731 
	C181.554947,92.999954 181.110519,92.999908 180.332733,92.999779 
	C179.999405,92.555389 179.999405,92.111076 179.999390,91.333542 
z"/>
<path fill="#006CDB" opacity="1.000000" stroke="none" 
	d="
M32.721802,60.106506 
	C32.519318,60.596195 32.038380,61.192039 31.279099,61.894199 
	C31.481621,61.404560 31.962479,60.808609 32.721802,60.106506 
z"/>
<path fill="#006CDB" opacity="1.000000" stroke="none" 
	d="
M172.892868,68.722290 
	C172.403275,68.519539 171.807770,68.038246 171.106140,67.278526 
	C171.595657,67.481308 172.191299,67.962524 172.892868,68.722290 
z"/>
<path fill="#006CDB" opacity="1.000000" stroke="none" 
	d="
M178.999390,87.333542 
	C179.166153,87.000244 179.332932,87.000183 179.749847,87.000061 
	C180.285431,87.483818 180.570847,87.967644 180.927826,88.725739 
	C180.554947,88.999954 180.110519,88.999908 179.332733,88.999779 
	C178.999405,88.555389 178.999405,88.111076 178.999390,87.333542 
z"/>
<path fill="#006CDB" opacity="1.000000" stroke="none" 
	d="
M157.848587,50.817780 
	C158.000488,51.165421 158.000366,51.332306 158.000122,51.749519 
	C157.714539,51.515984 157.429077,51.032120 157.072113,50.273930 
	C157.251053,50.191933 157.483032,50.404408 157.848587,50.817780 
z"/>
<path fill="#0173DF" opacity="1.000000" stroke="none" 
	d="
M33.065128,141.006302 
	C31.949503,139.898911 30.295076,138.991806 29.797995,137.654510 
	C20.312910,112.136559 20.926613,87.616379 36.869507,64.451241 
	C43.812195,54.363468 52.351849,45.903458 63.016190,40.273869 
	C76.928787,32.929550 92.164780,29.251625 107.919922,31.409502 
	C136.539230,35.329292 157.753555,50.186069 169.801788,76.793434 
	C177.428085,93.635345 177.650818,111.343445 173.653946,129.137512 
	C173.032898,131.902405 170.883987,134.324127 169.121857,137.087646 
	C168.802078,137.270737 168.840729,137.309723 168.842041,136.926422 
	C168.227676,134.028549 167.612000,131.513962 167.079773,128.637360 
	C173.522934,114.700104 171.902710,100.511955 167.933929,87.176666 
	C157.065811,50.659325 117.478058,27.041033 77.862579,40.122421 
	C60.394016,45.890697 47.084198,56.564732 38.027485,72.269676 
	C28.271498,89.187218 26.366325,107.400589 31.485634,126.241135 
	C31.883278,127.704567 33.791679,128.757492 35.029606,130.360077 
	C35.726917,132.518814 36.392536,134.318695 36.876274,136.379105 
	C35.484638,138.095184 34.274883,139.550735 33.065128,141.006302 
z"/>
<path fill="#1F79C8" opacity="1.000000" stroke="none" 
	d="
M33.123398,141.339172 
	C34.274883,139.550735 35.484638,138.095184 37.252304,136.374252 
	C39.534458,137.404709 41.258705,138.700531 42.970940,140.447220 
	C42.891171,142.099213 42.823410,143.300339 42.362709,144.393723 
	C40.017254,144.524521 38.064735,144.763031 36.112221,145.001541 
	C35.648933,144.994766 35.185642,144.988007 34.375980,144.956696 
	C33.746960,143.845444 33.464314,142.758728 33.123398,141.339172 
z"/>
<path fill="#006CDB" opacity="1.000000" stroke="none" 
	d="
M180.704315,117.130028 
	C180.529709,117.912560 180.060028,118.825752 179.295166,119.869476 
	C179.469757,119.086899 179.939514,118.173798 180.704315,117.130028 
z"/>
<path fill="#0072E0" opacity="1.000000" stroke="none" 
	d="
M156.995712,152.139511 
	C158.803650,153.150177 160.611572,154.160828 163.820587,155.954697 
	C154.619690,162.572571 146.808121,169.222290 138.071320,174.270844 
	C116.732300,186.601593 93.966255,189.306046 71.194153,179.176331 
	C60.770599,174.539612 51.603508,166.993057 42.110573,160.414108 
	C39.946049,158.913986 38.790634,155.957809 37.085381,153.335892 
	C37.000000,153.000000 36.999275,153.000610 37.342449,153.090485 
	C40.122356,153.452866 42.559090,153.725388 45.155571,154.297699 
	C47.214363,156.138428 49.199081,157.585983 50.998028,159.236069 
	C60.116199,167.599701 70.604050,173.510284 82.639694,176.349319 
	C100.183990,180.487793 117.085251,177.897858 132.959518,169.795853 
	C141.638412,165.366257 150.169800,160.335022 156.285034,152.082092 
	C156.522156,152.098251 156.995712,152.139511 156.995712,152.139511 
z"/>
<path fill="#0878DE" opacity="1.000000" stroke="none" 
	d="
M166.996338,128.999390 
	C167.612000,131.513962 168.227676,134.028549 168.815094,136.919220 
	C163.584961,136.900696 164.349152,141.951721 161.756317,144.748108 
	C160.862793,146.079437 160.496689,147.082596 160.130585,148.085754 
	C159.804230,148.833038 159.477859,149.580322 159.068146,150.635193 
	C158.984772,150.942795 158.526291,151.037048 158.271698,151.040588 
	C158.017120,151.044144 157.964447,150.975296 157.984589,150.515228 
	C157.933914,145.854858 157.863098,141.654526 158.132294,137.296494 
	C161.838089,135.382797 164.980255,133.447189 165.336334,129.005829 
	C166.111023,129.002945 166.553680,129.001160 166.996338,128.999390 
z"/>
<path fill="#B8EEFC" opacity="1.000000" stroke="none" 
	d="
M36.334557,145.032410 
	C38.064735,144.763031 40.017254,144.524521 42.617916,144.613312 
	C43.823475,146.606735 44.380886,148.272842 44.580856,149.978912 
	C41.991905,150.500595 39.760399,150.982315 37.514534,151.433655 
	C37.500179,151.403290 37.439392,151.431931 37.439392,151.431931 
	C36.376717,150.840515 35.314041,150.249115 34.251366,149.657700 
	C34.350101,149.406448 34.448837,149.155197 34.547573,148.903946 
	C36.251007,149.202957 37.960777,149.748749 39.655407,149.705215 
	C40.618713,149.680466 41.557251,148.691696 42.506950,148.137070 
	C41.986237,147.421265 41.465527,146.705475 40.277874,145.714325 
	C38.737991,145.350464 37.865047,145.261963 36.992107,145.173447 
	C36.992107,145.173447 36.556896,145.063263 36.334557,145.032410 
z"/>
<path fill="#1F79C8" opacity="1.000000" stroke="none" 
	d="
M37.282482,145.328308 
	C37.865047,145.261963 38.737991,145.350464 39.867527,145.644409 
	C39.273701,145.727615 38.423279,145.605392 37.282482,145.328308 
z"/>
<path fill="#077AE0" opacity="1.000000" stroke="none" 
	d="
M157.187103,151.982086 
	C156.995712,152.139511 156.522156,152.098251 156.262009,151.905869 
	C156.001862,151.713486 155.978485,151.359970 156.302032,151.261566 
	C157.071869,151.100525 157.518158,151.037903 157.964447,150.975281 
	C157.964447,150.975296 158.017120,151.044144 158.041000,151.079956 
	C157.860107,151.375305 157.631302,151.611603 157.187103,151.982086 
z"/>
<path fill="#0072E0" opacity="1.000000" stroke="none" 
	d="
M37.000305,152.999695 
	C37.019733,152.544724 37.038857,152.090073 37.248688,151.533661 
	C37.439392,151.431931 37.500179,151.403290 37.374657,151.815430 
	C37.165852,152.485229 37.082561,152.742920 36.999275,153.000610 
	C36.999275,153.000610 37.000000,153.000000 37.000305,152.999695 
z"/>
<path fill="#026DDA" opacity="1.000000" stroke="none" 
	d="
M160.401672,147.936646 
	C160.496689,147.082596 160.862793,146.079437 161.536530,145.027252 
	C161.453705,145.914673 161.063248,146.851105 160.401672,147.936646 
z"/>
<path fill="#0077E2" opacity="1.000000" stroke="none" 
	d="
M167.079773,128.637360 
	C166.553680,129.001160 166.111023,129.002945 165.142639,128.687317 
	C164.505692,127.234421 163.984787,125.942856 164.348450,124.988297 
	C167.107224,117.746910 166.055862,110.281563 166.047806,102.839043 
	C166.029892,86.306305 158.567825,72.717529 147.831635,61.358425 
	C133.791977,46.504196 115.853905,39.428413 95.147781,41.099258 
	C86.577148,41.790848 77.832542,42.666576 70.648834,49.043694 
	C63.940163,53.515919 56.346088,56.882587 51.459095,62.573799 
	C37.182178,79.200211 30.496622,98.473473 35.325176,120.751900 
	C35.958523,123.674095 35.142586,126.910400 34.997910,130.001221 
	C33.791679,128.757492 31.883278,127.704567 31.485634,126.241135 
	C26.366325,107.400589 28.271498,89.187218 38.027485,72.269676 
	C47.084198,56.564732 60.394016,45.890697 77.862579,40.122421 
	C117.478058,27.041033 157.065811,50.659325 167.933929,87.176666 
	C171.902710,100.511955 173.522934,114.700104 167.079773,128.637360 
z"/>
<path fill="#017CE6" opacity="1.000000" stroke="none" 
	d="
M35.029602,130.360077 
	C35.142586,126.910400 35.958523,123.674095 35.325176,120.751900 
	C30.496622,98.473473 37.182178,79.200211 51.459095,62.573799 
	C56.346088,56.882587 63.940163,53.515919 70.835297,49.346825 
	C71.914497,51.417152 72.455826,53.227875 72.812225,55.190704 
	C72.398399,55.571789 72.215553,55.833000 72.063644,56.360016 
	C72.048538,56.593578 71.987686,57.057709 71.586060,57.048042 
	C69.746048,57.172405 68.307671,57.306431 66.869293,57.440453 
	C67.180237,57.985584 67.491188,58.530712 67.802132,59.075844 
	C66.024544,60.566357 64.267479,62.082382 62.460659,63.536572 
	C61.561962,64.259872 60.476967,64.767380 59.637638,65.546387 
	C47.776878,76.554893 42.228016,90.364784 42.048943,106.351288 
	C41.930576,116.918266 43.128197,127.324661 47.687553,137.065933 
	C46.282814,138.096893 45.186005,139.030930 43.812645,139.973160 
	C43.351715,139.986374 43.167336,139.991364 42.982956,139.996338 
	C41.258705,138.700531 39.534458,137.404709 37.434181,136.113739 
	C36.392536,134.318695 35.726917,132.518814 35.029602,130.360077 
z"/>
<path fill="#0178E3" opacity="1.000000" stroke="none" 
	d="
M42.970940,140.447220 
	C43.167336,139.991364 43.351715,139.986374 44.187645,140.015045 
	C48.854000,140.860123 49.325764,143.747284 48.937561,147.102081 
	C48.576851,150.219284 49.488380,151.900742 52.876442,151.114044 
	C53.010506,152.333603 53.239704,153.266739 53.468895,154.199875 
	C53.999496,153.763062 54.530098,153.326248 55.376350,152.898407 
	C56.112125,152.924423 56.532249,152.941452 57.193153,153.217834 
	C59.713455,155.080948 61.992973,156.684723 64.443604,158.408890 
	C64.146187,158.748138 63.377995,159.624359 62.683475,160.416534 
	C63.016689,161.022110 63.123535,161.361420 63.345852,161.586807 
	C63.691502,161.937210 64.091492,162.248886 64.510078,162.510345 
	C83.841919,174.585907 104.390289,174.478729 125.304405,168.002609 
	C128.306641,167.072952 130.459137,163.399094 133.278442,160.924255 
	C134.034576,160.568665 134.517136,160.284027 135.377899,159.989288 
	C140.377853,159.455368 142.787537,156.861526 143.339752,152.183548 
	C144.104324,152.135376 144.542496,152.127655 145.016510,152.389771 
	C145.392029,153.095993 145.731689,153.532364 146.071365,153.968750 
	C146.384125,153.327927 146.696869,152.687119 147.294678,151.951447 
	C148.062531,151.510284 148.545349,151.163986 149.169510,150.631836 
	C149.564636,150.255814 149.847092,150.130005 150.455841,150.015106 
	C151.467606,149.591034 152.181747,149.220413 153.049835,149.050873 
	C153.437729,149.491745 153.671646,149.731522 154.073532,150.171707 
	C154.518265,150.580887 154.795029,150.789673 155.299164,151.087097 
	C155.526520,151.175766 155.978485,151.359970 155.978485,151.359970 
	C155.978485,151.359970 156.001862,151.713486 156.024872,151.889709 
	C150.169800,160.335022 141.638412,165.366257 132.959518,169.795853 
	C117.085251,177.897858 100.183990,180.487793 82.639694,176.349319 
	C70.604050,173.510284 60.116199,167.599701 50.998028,159.236069 
	C49.199081,157.585983 47.214363,156.138428 45.155922,154.047913 
	C44.996529,153.498337 44.996761,152.998703 45.129868,152.816833 
	C45.173065,152.090378 45.083157,151.545792 44.980537,150.735580 
	C44.957981,150.292938 44.948139,150.115936 44.938297,149.938934 
	C44.380886,148.272842 43.823475,146.606735 43.010857,144.721039 
	C42.823410,143.300339 42.891171,142.099213 42.970940,140.447220 
z"/>
<path fill="#026DDA" opacity="1.000000" stroke="none" 
	d="
M44.580856,149.978912 
	C44.948139,150.115936 44.957981,150.292938 44.848991,150.917877 
	C44.819023,151.910110 44.907890,152.454407 44.996758,152.998703 
	C44.996761,152.998703 44.996529,153.498337 44.996178,153.748123 
	C42.559090,153.725388 40.122356,153.452866 37.342449,153.090485 
	C37.082561,152.742920 37.165852,152.485229 37.389015,151.845795 
	C39.760399,150.982315 41.991905,150.500595 44.580856,149.978912 
z"/>
<path fill="#017BE4" opacity="1.000000" stroke="none" 
	d="
M72.997154,55.038597 
	C72.455826,53.227875 71.914497,51.417152 71.186707,49.303299 
	C77.832542,42.666576 86.577148,41.790848 95.147781,41.099258 
	C115.853905,39.428413 133.791977,46.504196 147.831635,61.358425 
	C158.567825,72.717529 166.029892,86.306305 166.047806,102.839043 
	C166.055862,110.281563 167.107224,117.746910 164.348450,124.988297 
	C163.984787,125.942856 164.505692,127.234421 164.810608,128.688416 
	C164.980255,133.447189 161.838089,135.382797 158.150879,137.256058 
	C157.829468,137.373337 157.828049,137.460098 157.667557,137.198914 
	C157.002853,136.613358 156.498627,136.288986 156.030731,135.597595 
	C158.646759,131.207626 160.545334,126.993988 160.626083,122.058578 
	C160.765976,113.509605 162.503632,104.717049 161.065186,96.463394 
	C157.016846,73.234406 143.074753,57.422771 121.217087,48.706013 
	C112.437325,45.204678 103.219017,44.267315 93.833603,45.174603 
	C90.328331,45.513458 87.606056,46.747585 88.377350,51.113743 
	C81.044495,48.573799 77.973694,49.420383 73.136353,55.122372 
	C73.091553,55.091877 72.997154,55.038597 72.997154,55.038597 
z"/>
<path fill="#D8FAFF" opacity="1.000000" stroke="none" 
	d="
M156.302032,151.261566 
	C155.978485,151.359970 155.526520,151.175766 155.265472,150.625336 
	C155.072037,145.839645 155.139633,141.604370 155.198563,137.347595 
	C155.189896,137.326096 155.142914,137.330170 155.478882,137.339966 
	C156.485916,137.386536 157.156982,137.423309 157.828049,137.460098 
	C157.828049,137.460098 157.829468,137.373337 157.810867,137.413773 
	C157.863098,141.654526 157.933914,145.854858 157.984589,150.515228 
	C157.518158,151.037903 157.071869,151.100525 156.302032,151.261566 
z"/>
<path fill="#0284EA" opacity="1.000000" stroke="none" 
	d="
M47.995483,136.968994 
	C43.128197,127.324661 41.930576,116.918266 42.048943,106.351288 
	C42.228016,90.364784 47.776878,76.554893 59.637638,65.546387 
	C60.476967,64.767380 61.561962,64.259872 62.460659,63.536572 
	C64.267479,62.082382 66.024544,60.566357 67.802132,59.075844 
	C67.491188,58.530712 67.180237,57.985584 66.869293,57.440453 
	C68.307671,57.306431 69.746048,57.172405 71.597839,57.506187 
	C71.978432,62.322151 71.945610,66.670303 71.561005,71.047623 
	C64.625679,74.085411 61.279301,79.850975 58.021397,85.915939 
	C51.989586,97.144852 51.883034,108.812630 54.547199,120.826828 
	C55.406487,124.701843 56.288101,128.571915 57.323547,133.173233 
	C58.375137,133.367447 60.426933,133.746384 62.677322,134.162003 
	C62.770004,135.620193 62.852734,136.921860 62.594025,138.225174 
	C60.630310,140.499664 59.008038,142.772537 57.235207,145.345093 
	C56.756069,146.432159 56.427498,147.219543 55.999523,148.342346 
	C55.750340,149.119507 55.600555,149.561249 55.246735,150.021088 
	C55.042702,150.039154 54.645275,150.138535 54.497208,150.102844 
	C54.349144,150.067169 54.050674,150.006287 53.933304,149.651825 
	C50.597469,145.221695 51.414673,141.894867 57.220589,138.834869 
	C53.211971,138.024094 50.603725,137.496552 47.995483,136.968994 
z"/>
<path fill="#9BE9FF" opacity="1.000000" stroke="none" 
	d="
M47.687553,137.065933 
	C50.603725,137.496552 53.211971,138.024094 57.220589,138.834869 
	C51.414673,141.894867 50.597469,145.221695 53.690231,149.690552 
	C53.236740,150.227982 53.039085,150.475952 52.971577,150.827637 
	C49.488380,151.900742 48.576851,150.219284 48.937561,147.102081 
	C49.325764,143.747284 48.854000,140.860123 44.464195,140.006836 
	C45.186005,139.030930 46.282814,138.096893 47.687553,137.065933 
z"/>
<path fill="#1998EF" opacity="1.000000" stroke="none" 
	d="
M71.912781,71.018456 
	C71.945610,66.670303 71.978432,62.322151 71.999474,57.515854 
	C71.987686,57.057709 72.048538,56.593578 72.295601,56.344891 
	C72.542664,56.096203 73.008896,56.077400 73.067398,56.534943 
	C73.080338,67.657280 73.034775,78.322075 72.711464,88.859222 
	C72.258926,86.814705 72.084137,84.897835 71.920891,82.521729 
	C71.925880,78.381149 71.919327,74.699806 71.912781,71.018456 
z"/>
<path fill="#017BE4" opacity="1.000000" stroke="none" 
	d="
M73.008896,56.077400 
	C73.008896,56.077400 72.542664,56.096203 72.310707,56.111328 
	C72.215553,55.833000 72.398399,55.571789 72.812225,55.190704 
	C72.997154,55.038597 73.091553,55.091877 73.128960,55.360161 
	C73.166367,55.628448 73.008896,56.077400 73.008896,56.077400 
z"/>
<path fill="#017DE7" opacity="1.000000" stroke="none" 
	d="
M133.004883,160.995224 
	C130.459137,163.399094 128.306641,167.072952 125.304405,168.002609 
	C104.390289,174.478729 83.841919,174.585907 64.510078,162.510345 
	C64.091492,162.248886 63.691502,161.937210 63.345852,161.586807 
	C63.123535,161.361420 63.016689,161.022110 62.683475,160.416534 
	C63.377995,159.624359 64.146187,158.748138 64.443604,158.408890 
	C61.992973,156.684723 59.713455,155.080948 57.407967,152.938873 
	C59.911579,149.724731 62.880901,149.597351 66.077782,150.907990 
	C66.059120,150.919098 66.085243,150.893967 66.061737,151.172333 
	C66.030281,151.636749 66.022324,151.822784 66.066589,152.358917 
	C66.312302,153.160950 66.376984,153.833725 66.718040,154.032669 
	C76.015762,159.455704 85.760452,163.764725 96.720749,163.913971 
	C102.817703,163.997009 109.180534,164.185455 114.959793,162.617310 
	C121.114571,160.947266 128.635544,160.123215 131.500488,152.143814 
	C135.642975,152.152390 139.328156,152.188187 143.013321,152.223999 
	C142.787537,156.861526 140.377853,159.455368 135.175003,159.876144 
	C134.064240,160.180481 133.534561,160.587860 133.004883,160.995224 
z"/>
<path fill="#D5F5FD" opacity="1.000000" stroke="none" 
	d="
M150.158218,150.068558 
	C149.847092,150.130005 149.564636,150.255814 148.710999,150.676239 
	C145.567703,150.906464 143.024292,150.906464 140.295700,150.906464 
	C140.295700,146.107574 140.295700,141.749176 140.700409,137.385681 
	C143.770920,137.550003 146.436707,137.719421 149.299500,138.056122 
	C149.930984,138.489975 150.365494,138.756531 150.955109,139.397842 
	C153.220734,143.429077 152.706543,146.842865 150.158218,150.068558 
M147.907303,147.571838 
	C148.128601,145.607956 148.925156,143.448257 148.349060,141.755814 
	C148.019165,140.786697 145.457886,140.577133 143.901230,140.025620 
	C143.559113,140.387238 143.217010,140.748871 142.874893,141.110489 
	C144.930176,143.084641 139.376694,148.718048 147.907303,147.571838 
z"/>
<path fill="#2485CF" opacity="1.000000" stroke="none" 
	d="
M140.295700,137.390762 
	C140.295700,141.749176 140.295700,146.107574 140.295700,150.906464 
	C143.024292,150.906464 145.567703,150.906464 148.569641,150.862061 
	C148.545349,151.163986 148.062531,151.510284 146.956085,151.948563 
	C145.881851,152.067001 145.431244,152.093460 144.980652,152.119919 
	C144.542496,152.127655 144.104324,152.135376 143.339752,152.183548 
	C139.328156,152.188187 135.642975,152.152390 131.186615,152.092010 
	C129.623398,151.805969 128.831390,151.544525 128.481735,151.230255 
	C131.864059,151.177460 134.804016,151.177460 137.743973,151.177460 
	C137.789017,150.510468 137.834061,149.843491 137.879105,149.176498 
	C135.927704,148.589859 133.976303,148.003204 131.218781,147.174225 
	C133.779007,145.953522 135.480408,145.142303 137.181808,144.331085 
	C137.049744,143.996368 136.917664,143.661667 136.785583,143.326950 
	C134.687698,143.009491 132.589798,142.692017 130.491913,142.374542 
	C130.507614,141.858170 130.523315,141.341812 130.539017,140.825439 
	C132.037354,140.631638 133.666809,140.733871 134.991226,140.147324 
	C135.993195,139.703613 136.605728,138.380554 137.817596,137.348373 
	C138.818954,137.150650 139.394287,137.053406 140.051987,137.064178 
	C140.134338,137.172195 140.295700,137.390762 140.295700,137.390762 
z"/>
<path fill="#3388D2" opacity="1.000000" stroke="none" 
	d="
M150.455841,150.015106 
	C152.706543,146.842865 153.220734,143.429077 151.303238,139.380371 
	C152.733246,138.448441 153.970245,137.908768 155.207230,137.369095 
	C155.139633,141.604370 155.072037,145.839645 155.038116,150.536682 
	C154.795029,150.789673 154.518265,150.580887 154.088562,149.956329 
	C153.801910,149.145081 153.668182,148.749634 153.534454,148.354187 
	C153.321594,148.519379 153.108734,148.684586 152.895889,148.849792 
	C152.181747,149.220413 151.467606,149.591034 150.455841,150.015106 
z"/>
<path fill="#1D89DB" opacity="1.000000" stroke="none" 
	d="
M66.096443,150.896896 
	C62.880901,149.597351 59.911579,149.724731 57.167183,152.679535 
	C56.532249,152.941452 56.112125,152.924423 55.352974,152.552704 
	C54.891052,151.511536 54.768166,150.825027 54.645275,150.138535 
	C54.645275,150.138535 55.042702,150.039154 55.582748,150.248657 
	C56.744137,150.014084 57.365486,149.570007 58.336990,148.946640 
	C61.289612,149.015503 64.707008,146.428253 66.096443,150.896896 
z"/>
<path fill="#017DE7" opacity="1.000000" stroke="none" 
	d="
M54.497208,150.102844 
	C54.768166,150.825027 54.891052,151.511536 55.037323,152.543732 
	C54.530098,153.326248 53.999496,153.763062 53.468895,154.199875 
	C53.239704,153.266739 53.010506,152.333603 52.876442,151.114044 
	C53.039085,150.475952 53.236740,150.227982 53.807602,150.045013 
	C54.050674,150.006287 54.349144,150.067169 54.497208,150.102844 
z"/>
<path fill="#077AE0" opacity="1.000000" stroke="none" 
	d="
M145.016510,152.389771 
	C145.431244,152.093460 145.881851,152.067001 146.671036,152.043427 
	C146.696869,152.687119 146.384125,153.327927 146.071365,153.968750 
	C145.731689,153.532364 145.392029,153.095993 145.016510,152.389771 
z"/>
<path fill="#077AE0" opacity="1.000000" stroke="none" 
	d="
M133.278442,160.924255 
	C133.534561,160.587860 134.064240,160.180481 134.796814,159.886261 
	C134.517136,160.284027 134.034576,160.568665 133.278442,160.924255 
z"/>
<path fill="#0072E0" opacity="1.000000" stroke="none" 
	d="
M45.129868,152.816833 
	C44.907890,152.454407 44.819023,151.910110 44.861698,151.183502 
	C45.083157,151.545792 45.173065,152.090378 45.129868,152.816833 
z"/>
<path fill="#077AE0" opacity="1.000000" stroke="none" 
	d="
M153.049835,149.050873 
	C153.108734,148.684586 153.321594,148.519379 153.534454,148.354187 
	C153.668182,148.749634 153.801910,149.145081 153.920609,149.755920 
	C153.671646,149.731522 153.437729,149.491745 153.049835,149.050873 
z"/>
<path fill="#F4FDFE" opacity="1.000000" stroke="none" 
	d="
M73.067398,56.534943 
	C73.008896,56.077400 73.166367,55.628448 73.173767,55.390656 
	C77.973694,49.420383 81.044495,48.573799 88.407822,51.097866 
	C88.839821,51.121593 88.796028,51.068871 88.889931,51.327812 
	C89.319885,51.696606 89.655937,51.806454 90.068634,52.052372 
	C90.145287,52.188446 90.457565,52.181561 90.676331,52.468445 
	C105.472488,61.144291 120.068703,69.500793 134.619736,77.935242 
	C142.456009,82.477501 143.524078,85.365280 140.875061,93.885483 
	C140.909302,93.920403 140.977875,93.850677 140.697632,93.923286 
	C140.248428,94.330513 140.079468,94.665131 139.922150,94.965271 
	C139.933807,94.930794 139.864655,94.908073 139.575531,94.882988 
	C138.900696,94.890831 138.514999,94.923759 137.955475,94.694275 
	C136.842148,93.992935 135.902649,93.554001 134.866989,92.957970 
	C134.770828,92.800865 134.407364,92.740768 134.168549,92.467377 
	C130.986404,90.768623 128.043076,89.343262 125.013504,87.636261 
	C124.129822,86.850410 123.332397,86.346191 122.316025,85.579971 
	C121.079544,84.843330 120.062004,84.368706 119.038696,83.926788 
	C119.032921,83.959503 119.098274,83.947556 118.928650,83.682068 
	C118.173897,83.213318 117.588783,83.010056 117.029007,82.869904 
	C117.054359,82.933022 117.180099,82.881096 116.997101,82.623871 
	C116.207123,82.219749 115.600136,82.072868 114.998978,81.957611 
	C115.004807,81.989250 115.063217,81.962273 114.921555,81.678894 
	C114.181992,81.228806 113.584076,81.062096 112.995026,80.948502 
	C113.003876,81.001602 113.110077,80.983864 113.017662,80.717926 
	C112.613037,80.331879 112.300827,80.211761 111.788528,80.031174 
	C111.588440,79.970695 111.170952,79.949036 111.046936,79.636673 
	C109.958229,78.859894 108.993530,78.395470 108.020798,77.961487 
	C108.012764,77.991920 108.075394,77.985489 107.979378,77.741844 
	C107.587524,77.382561 107.291695,77.266930 106.795357,77.072479 
	C106.594856,76.993668 106.165497,76.957695 106.049751,76.699554 
	C105.622452,76.262703 105.310890,76.083984 105.013763,75.940720 
	C105.028206,75.976181 105.098915,75.946808 104.934769,75.676201 
	C104.182571,75.203125 103.594536,75.000648 103.038719,74.852272 
	C103.070946,74.906364 103.178230,74.840431 102.970291,74.568405 
	C100.575432,73.104279 98.388519,71.912178 96.188591,70.755684 
	C96.175583,70.791298 96.251251,70.786423 96.034683,70.511261 
	C94.835594,69.639069 93.851814,69.044075 92.870766,68.444618 
	C89.669144,66.488297 86.496918,66.192200 84.214256,69.594398 
	C81.721588,73.309593 83.419327,76.081245 86.968437,78.043365 
	C87.002090,78.009506 86.926277,78.065804 87.062393,78.375481 
	C88.445503,79.189590 89.692482,79.694031 91.067032,80.422707 
	C91.673950,80.806900 92.153313,80.966850 92.829605,81.393921 
	C94.014305,82.119278 95.002068,82.577515 95.993576,83.014923 
	C95.997314,82.994087 95.965553,83.022285 96.141220,83.271317 
	C96.879921,83.718826 97.442955,83.917297 97.991516,84.071381 
	C97.977043,84.026985 97.888420,84.056458 98.067291,84.316132 
	C98.829666,84.782066 99.413155,84.988335 99.990639,85.112305 
	C99.984627,85.030006 99.820076,85.042557 99.915512,85.300613 
	C100.342941,85.688873 100.674934,85.819061 101.006348,85.976845 
	C101.005775,86.004440 101.050728,85.972404 101.243607,86.235794 
	C102.604424,87.070923 103.772346,87.642662 105.140221,88.483002 
	C112.531105,92.893509 119.722054,97.035408 126.924843,101.413261 
	C126.253662,102.359543 125.570625,103.069885 124.587646,103.871468 
	C123.437378,104.551262 122.587067,105.139809 121.397247,105.808105 
	C110.722443,111.794472 100.472786,117.860069 89.996468,123.504997 
	C87.082237,125.075264 83.496773,125.399780 79.895073,126.126877 
	C71.791298,121.423065 69.399918,113.040108 73.328186,102.986374 
	C74.718636,103.421661 75.775131,103.774086 77.043419,104.396805 
	C81.572174,107.139290 85.848480,109.686386 90.219864,112.058281 
	C93.314957,113.737663 96.105728,113.081558 97.946236,110.049538 
	C99.839264,106.930984 98.812752,104.227364 95.922272,102.352547 
	C93.865143,101.018257 91.566261,100.056686 89.211601,98.693741 
	C88.698883,98.327141 88.349838,98.195587 87.991882,98.032059 
	C87.982986,98.000084 87.922348,98.027077 87.751076,97.800247 
	C87.061142,97.419327 86.542480,97.265244 85.729614,96.968643 
	C84.686646,96.528275 83.937889,96.230431 83.057434,95.609329 
	C79.619576,93.197334 76.313408,91.108612 73.010880,89.007919 
	C73.014511,88.995941 72.989204,88.986870 72.989212,88.986870 
	C73.034775,78.322075 73.080338,67.657280 73.067398,56.534943 
z"/>
<path fill="#017EE7" opacity="1.000000" stroke="none" 
	d="
M90.457565,52.181561 
	C90.457565,52.181561 90.145287,52.188446 89.882645,51.893444 
	C89.358864,51.400887 89.084206,51.224361 88.796028,51.068871 
	C88.796028,51.068871 88.839821,51.121593 88.809357,51.137470 
	C87.606056,46.747585 90.328331,45.513458 93.833603,45.174603 
	C103.219017,44.267315 112.437325,45.204678 121.217087,48.706013 
	C143.074753,57.422771 157.016846,73.234406 161.065186,96.463394 
	C162.503632,104.717049 160.765976,113.509605 160.626083,122.058578 
	C160.545334,126.993988 158.646759,131.207626 155.860260,135.806549 
	C155.483261,136.698410 155.313095,137.014297 155.142914,137.330170 
	C155.142914,137.330170 155.189896,137.326096 155.198563,137.347595 
	C153.970245,137.908768 152.733246,138.448441 151.148132,139.005585 
	C150.365494,138.756531 149.930984,138.489975 149.273560,137.761383 
	C149.010086,136.907761 148.969513,136.516159 149.001312,135.753326 
	C150.530396,132.426773 152.128342,129.531769 153.420319,126.506126 
	C160.437454,110.072884 156.434982,94.379982 149.323288,79.306442 
	C146.790421,73.937927 142.748398,68.833542 138.252136,64.922882 
	C124.546806,53.002548 108.198524,49.656189 90.457565,52.181561 
z"/>
<path fill="#0878DE" opacity="1.000000" stroke="none" 
	d="
M155.478882,137.339966 
	C155.313095,137.014297 155.483261,136.698410 155.823929,136.173569 
	C156.498627,136.288986 157.002853,136.613358 157.667557,137.198914 
	C157.156982,137.423309 156.485916,137.386536 155.478882,137.339966 
z"/>
<path fill="#068CEF" opacity="1.000000" stroke="none" 
	d="
M71.561005,71.047623 
	C71.919327,74.699806 71.925880,78.381149 71.579216,82.529900 
	C70.168953,83.304939 68.395264,83.348129 68.168663,83.962219 
	C66.416786,88.709709 64.563713,93.480988 63.497688,98.408386 
	C60.845547,110.667175 62.065014,122.457741 71.484871,131.566696 
	C75.381950,135.335159 76.458443,139.016769 75.598297,143.833099 
	C73.930786,142.736877 72.687782,141.529205 71.269264,140.585266 
	C70.236359,139.897934 68.971794,139.558731 67.456879,139.051376 
	C66.395638,139.027588 65.688026,139.016769 64.634720,139.035599 
	C64.059120,139.090515 63.829197,139.115784 63.437866,139.028778 
	C63.075222,138.728622 62.961555,138.497635 62.935467,138.223541 
	C62.852734,136.921860 62.770004,135.620193 62.677322,134.162003 
	C60.426933,133.746384 58.375137,133.367447 57.323547,133.173233 
	C56.288101,128.571915 55.406487,124.701843 54.547199,120.826828 
	C51.883034,108.812630 51.989586,97.144852 58.021397,85.915939 
	C61.279301,79.850975 64.625679,74.085411 71.561005,71.047623 
z"/>
<path fill="#A1E3FD" opacity="1.000000" stroke="none" 
	d="
M62.594025,138.225174 
	C62.961555,138.497635 63.075222,138.728622 63.551743,139.367981 
	C64.467163,141.096832 65.107315,142.374237 65.720924,143.741379 
	C65.694389,143.831116 65.849411,143.935974 65.850311,144.206528 
	C65.847389,144.657394 65.843559,144.837723 65.566055,145.143539 
	C62.656841,145.194489 60.021305,145.119934 57.385765,145.045395 
	C59.008038,142.772537 60.630310,140.499664 62.594025,138.225174 
z"/>
<path fill="#B7EDFA" opacity="1.000000" stroke="none" 
	d="
M57.235207,145.345093 
	C60.021305,145.119934 62.656841,145.194489 65.718048,145.382324 
	C66.401527,145.765152 66.659355,146.034653 66.930931,146.470123 
	C66.944687,146.636093 67.126892,146.914871 67.113022,147.272278 
	C67.534912,148.448135 67.970680,149.266617 68.256897,150.369141 
	C67.733124,150.846329 67.358887,151.039429 66.770065,151.120651 
	C66.555473,151.008774 66.085243,150.893967 66.085243,150.893967 
	C66.085243,150.893967 66.059120,150.919098 66.077782,150.907990 
	C64.707008,146.428253 61.289612,149.015503 58.095707,148.815735 
	C57.035820,148.578384 56.567371,148.292664 56.098923,148.006927 
	C56.427498,147.219543 56.756069,146.432159 57.235207,145.345093 
z"/>
<path fill="#9BE9FF" opacity="1.000000" stroke="none" 
	d="
M55.999527,148.342346 
	C56.567371,148.292664 57.035820,148.578384 57.745552,148.995026 
	C57.365486,149.570007 56.744137,150.014084 55.786781,150.230591 
	C55.600555,149.561249 55.750340,149.119507 55.999527,148.342346 
z"/>
<path fill="#0E93F2" opacity="1.000000" stroke="none" 
	d="
M75.947601,143.834656 
	C76.458443,139.016769 75.381950,135.335159 71.484871,131.566696 
	C62.065014,122.457741 60.845547,110.667175 63.497688,98.408386 
	C64.563713,93.480988 66.416786,88.709709 68.168663,83.962219 
	C68.395264,83.348129 70.168953,83.304939 71.567680,82.989136 
	C72.084137,84.897835 72.258926,86.814705 72.711456,88.859222 
	C72.989204,88.986870 73.014511,88.995941 73.030922,89.333694 
	C75.283226,94.091187 74.807350,98.500031 72.994232,102.903511 
	C69.399918,113.040108 71.791298,121.423065 80.047394,126.315109 
	C81.016579,127.114578 81.509270,127.556885 81.679817,128.042450 
	C80.783524,128.578201 80.209373,129.070709 79.635216,129.563217 
	C80.757027,130.041946 81.878845,130.520660 83.123268,131.278458 
	C84.847458,131.786270 86.449036,132.015015 88.162415,132.259735 
	C89.055550,136.964493 91.184402,138.199814 96.283150,136.308075 
	C98.451729,135.503494 100.393425,134.235489 100.637238,137.980682 
	C99.156532,140.117950 97.994301,142.112701 96.569878,143.917175 
	C94.599808,141.879257 92.891937,140.031631 90.871201,138.253357 
	C88.876976,139.706787 85.393906,135.347961 84.735161,140.221222 
	C84.631340,140.500610 84.655602,140.685043 84.766846,141.236862 
	C84.770981,142.115524 84.771118,142.617645 84.606323,143.260880 
	C82.962845,142.936905 81.484306,142.471817 79.680817,142.035400 
	C78.279442,142.699875 77.203011,143.335663 76.079330,143.940521 
	C76.032074,143.909607 75.947601,143.834656 75.947601,143.834656 
z"/>
<path fill="#0786E9" opacity="1.000000" stroke="none" 
	d="
M66.984665,151.232544 
	C67.358887,151.039429 67.733124,150.846329 68.490143,150.213989 
	C68.290916,148.821472 67.708908,147.868164 67.126892,146.914871 
	C67.126892,146.914871 66.944687,146.636093 66.889511,146.138947 
	C66.506020,145.073181 66.177711,144.504578 65.849411,143.935974 
	C65.849411,143.935974 65.694389,143.831116 65.758118,143.337402 
	C65.541359,141.564423 65.260887,140.285187 64.980408,139.005936 
	C65.688026,139.016769 66.395638,139.027588 67.485794,139.367981 
	C69.464035,143.621780 71.002518,147.572510 72.779526,151.412857 
	C72.902695,151.679031 74.800735,151.123947 76.248581,150.995483 
	C79.468117,151.672745 82.557045,154.382828 85.059090,150.345825 
	C87.530296,150.756607 89.762276,150.896942 92.222946,150.739868 
	C92.729919,148.420425 93.008202,146.398407 93.429367,143.338226 
	C95.112144,145.386826 96.110367,146.602051 97.270233,148.133667 
	C98.565102,149.309113 99.698341,150.168182 100.831581,151.027237 
	C101.289841,150.806641 101.748108,150.586044 102.206367,150.365448 
	C102.206367,146.612442 102.206367,142.859436 102.495987,139.177032 
	C103.186981,140.831375 103.588364,142.415100 103.845070,144.244080 
	C104.249947,146.514725 104.799484,148.540115 105.349030,150.565521 
	C106.157524,148.867615 106.966850,147.170120 107.773064,145.471130 
	C107.843285,145.323151 107.893013,145.165466 107.961700,144.568237 
	C107.993462,141.761124 108.015785,139.398056 108.257660,137.022522 
	C108.477211,137.010056 108.915855,136.978073 108.988014,137.038315 
	C109.060173,137.098557 109.226898,137.185410 109.183617,137.637024 
	C109.109016,140.532318 108.887596,142.993256 109.107300,145.414154 
	C109.279129,147.307419 109.998024,149.151047 110.473846,151.016724 
	C111.129837,149.301010 111.798355,147.589935 112.434990,145.867050 
	C112.657166,145.265793 112.800735,144.635498 112.990852,144.007721 
	C113.001495,143.996994 113.023849,143.976135 113.355377,144.010223 
	C114.708282,144.992935 115.729652,145.941574 116.707115,146.849411 
	C118.177048,145.571274 119.315262,144.581589 120.292419,143.731934 
	C122.517090,146.021835 118.222885,150.837234 124.254181,151.128555 
	C125.395805,151.091354 126.283730,150.977325 127.394997,150.954987 
	C127.618347,151.046646 128.039368,151.283066 128.039368,151.283066 
	C128.831390,151.544525 129.623398,151.805969 130.729309,152.119232 
	C128.635544,160.123215 121.114571,160.947266 114.959793,162.617310 
	C109.180534,164.185455 102.817703,163.997009 96.720749,163.913971 
	C85.760452,163.764725 76.015762,159.455704 66.718040,154.032669 
	C66.376984,153.833725 66.312302,153.160950 66.239922,152.244492 
	C66.589767,151.621277 66.797646,151.438797 66.984665,151.232544 
z"/>
<path fill="#1D89DB" opacity="1.000000" stroke="none" 
	d="
M66.770065,151.120667 
	C66.797646,151.438797 66.589767,151.621277 66.187691,151.894409 
	C66.022324,151.822784 66.030281,151.636749 66.061737,151.172333 
	C66.085243,150.893967 66.555473,151.008774 66.770065,151.120667 
z"/>
<path fill="#1B82D6" opacity="1.000000" stroke="none" 
	d="
M147.519470,147.761444 
	C139.376694,148.718048 144.930176,143.084641 142.874893,141.110489 
	C143.217010,140.748871 143.559113,140.387238 143.901230,140.025620 
	C145.457886,140.577133 148.019165,140.786697 148.349060,141.755814 
	C148.925156,143.448257 148.128601,145.607956 147.519470,147.761444 
z"/>
<path fill="#2485CF" opacity="1.000000" stroke="none" 
	d="
M148.928940,136.124573 
	C148.969513,136.516159 149.010086,136.907761 149.076584,137.594086 
	C146.436707,137.719421 143.770920,137.550003 140.700409,137.385681 
	C140.295700,137.390762 140.134338,137.172195 140.203400,136.882538 
	C140.489151,136.361801 140.727173,136.155319 141.430161,135.987640 
	C144.225494,136.042755 146.577225,136.083664 148.928940,136.124573 
z"/>
<path fill="#038AEF" opacity="1.000000" stroke="none" 
	d="
M140.986542,135.973450 
	C140.727173,136.155319 140.489151,136.361801 140.121048,136.774521 
	C139.394287,137.053406 138.818954,137.150650 137.706543,137.338348 
	C137.169495,137.428772 137.051559,137.239609 136.777130,136.999100 
	C135.327347,136.512924 134.151962,136.267242 133.013931,135.653198 
	C133.548889,134.079605 133.934799,132.812622 134.561401,131.678665 
	C140.968445,120.084106 142.705246,107.829567 139.864655,94.908073 
	C139.864655,94.908073 139.933807,94.930794 140.115845,94.788574 
	C140.524536,94.381134 140.751205,94.115906 140.977875,93.850677 
	C140.977875,93.850677 140.909302,93.920403 141.277008,93.927711 
	C145.150711,93.979210 147.533051,95.711319 147.671371,99.195320 
	C147.891312,104.735863 148.396088,110.454056 147.332016,115.809334 
	C145.966919,122.679733 143.167816,129.265213 140.986542,135.973450 
z"/>
<path fill="#C6EDFD" opacity="1.000000" stroke="none" 
	d="
M137.051559,137.239609 
	C137.051559,137.239609 137.169495,137.428772 137.280533,137.438812 
	C136.605728,138.380554 135.993195,139.703613 134.991226,140.147324 
	C133.666809,140.733871 132.037354,140.631638 130.539017,140.825439 
	C130.523315,141.341812 130.507614,141.858170 130.491913,142.374542 
	C132.589798,142.692017 134.687698,143.009491 136.785583,143.326950 
	C136.917664,143.661667 137.049744,143.996368 137.181808,144.331085 
	C135.480408,145.142303 133.779007,145.953522 131.218781,147.174225 
	C133.976303,148.003204 135.927704,148.589859 137.879105,149.176498 
	C137.834061,149.843491 137.789017,150.510468 137.743973,151.177460 
	C134.804016,151.177460 131.864059,151.177460 128.481735,151.230255 
	C128.039368,151.283066 127.618347,151.046646 127.389542,150.502747 
	C127.223495,145.762756 127.286255,141.566635 127.286331,137.350647 
	C127.223648,137.330765 127.190010,137.457901 127.632538,137.444183 
	C131.067230,137.366837 134.059402,137.303223 137.051559,137.239609 
z"/>
<path fill="#0485E9" opacity="1.000000" stroke="none" 
	d="
M141.430161,135.987640 
	C143.167816,129.265213 145.966919,122.679733 147.332016,115.809334 
	C148.396088,110.454056 147.891312,104.735863 147.671371,99.195320 
	C147.533051,95.711319 145.150711,93.979210 141.242783,93.892792 
	C143.524078,85.365280 142.456009,82.477501 134.619736,77.935242 
	C120.068703,69.500793 105.472488,61.144291 90.676331,52.468445 
	C108.198524,49.656189 124.546806,53.002548 138.252136,64.922882 
	C142.748398,68.833542 146.790421,73.937927 149.323288,79.306442 
	C156.434982,94.379982 160.437454,110.072884 153.420319,126.506126 
	C152.128342,129.531769 150.530396,132.426773 149.001312,135.753326 
	C146.577225,136.083664 144.225494,136.042755 141.430161,135.987640 
z"/>
<path fill="#1698F3" opacity="1.000000" stroke="none" 
	d="
M92.632668,81.126801 
	C92.153313,80.966850 91.673950,80.806900 90.944038,80.090118 
	C89.437752,79.044121 88.182014,78.554962 86.926277,78.065804 
	C86.926277,78.065804 87.002090,78.009506 86.964432,77.674629 
	C86.596550,75.906975 86.266319,74.474190 85.963242,73.016861 
	C85.990387,72.992302 86.039268,72.937798 86.396332,72.908073 
	C89.919350,72.181038 93.085304,71.483734 96.251251,70.786423 
	C96.251251,70.786423 96.175583,70.791298 96.180656,71.153549 
	C96.842461,76.145073 100.380333,74.714577 103.178230,74.840431 
	C103.178230,74.840431 103.070946,74.906364 103.257889,75.065948 
	C103.996193,75.465950 104.547554,75.706383 105.098915,75.946808 
	C105.098915,75.946808 105.028206,75.976181 105.184952,76.141174 
	C105.616295,76.523346 105.890892,76.740517 106.165497,76.957695 
	C106.165497,76.957695 106.594856,76.993668 106.958984,77.231972 
	C107.554184,77.670769 107.804939,77.842506 108.075394,77.985489 
	C108.075394,77.985489 108.012764,77.991920 108.148956,78.274063 
	C109.247078,79.020477 110.209015,79.484756 111.170952,79.949036 
	C111.170952,79.949036 111.588440,79.970695 111.957870,80.201050 
	C112.568001,80.644211 112.828934,80.828362 113.110077,80.983864 
	C113.110077,80.983864 113.003876,81.001602 113.218697,81.145317 
	C113.976753,81.513443 114.519981,81.737854 115.063217,81.962273 
	C115.063217,81.962273 115.004807,81.989250 115.232788,82.154785 
	C116.033882,82.507240 116.606987,82.694168 117.180099,82.881104 
	C117.180099,82.881096 117.054359,82.933022 117.247780,83.084076 
	C117.993561,83.472603 118.545914,83.710075 119.098274,83.947556 
	C119.098274,83.947556 119.032921,83.959503 119.183594,84.258545 
	C120.401176,84.985718 121.468071,85.413841 122.534973,85.841972 
	C123.332397,86.346191 124.129822,86.850410 124.752686,87.759262 
	C124.637474,89.108131 124.592949,90.072899 124.774727,90.992950 
	C125.447029,94.395729 126.194054,97.783745 126.912994,101.177315 
	C119.722054,97.035408 112.531105,92.893509 105.022293,88.155502 
	C103.486519,87.030396 102.268623,86.501404 101.050728,85.972412 
	C101.050728,85.972404 101.005775,86.004440 100.830757,85.798859 
	C100.377190,85.409698 100.098633,85.226128 99.820076,85.042557 
	C99.820076,85.042557 99.984627,85.030006 99.771454,84.896667 
	C99.001656,84.527702 98.445038,84.292084 97.888420,84.056458 
	C97.888420,84.056458 97.977043,84.026985 97.777252,83.866386 
	C97.040161,83.477951 96.502861,83.250114 95.965553,83.022285 
	C95.965553,83.022285 95.997314,82.994087 95.799904,82.737518 
	C94.612549,82.029572 93.622612,81.578194 92.632668,81.126801 
z"/>
<path fill="#0E94F2" opacity="1.000000" stroke="none" 
	d="
M126.924850,101.413261 
	C126.194054,97.783745 125.447029,94.395729 124.774727,90.992950 
	C124.592949,90.072899 124.637474,89.108131 124.838943,88.040894 
	C128.043076,89.343262 130.986404,90.768623 133.788422,92.529274 
	C131.822952,93.227959 129.522171,93.418190 130.996170,96.183434 
	C135.454758,104.547783 134.498505,112.809326 130.791092,121.065262 
	C128.547318,126.061882 126.251709,131.035233 123.627930,136.057434 
	C122.438911,136.519470 121.601341,136.943100 120.576416,137.618103 
	C118.978111,139.039429 117.567162,140.209381 117.179840,140.530548 
	C113.736168,139.082077 111.481537,138.133743 109.226898,137.185410 
	C109.226898,137.185410 109.060173,137.098557 108.874054,136.752426 
	C107.678642,135.484909 106.669342,134.563538 105.249466,133.267334 
	C106.434319,132.919571 107.201088,132.420593 107.566238,132.628159 
	C113.748772,136.142380 117.288376,132.325272 120.565521,127.963181 
	C124.493385,122.734924 128.867538,117.928535 127.272430,110.198296 
	C126.841377,108.109299 128.535370,106.115868 124.986328,105.628159 
	C124.948631,104.765305 124.918114,104.272766 124.887596,103.780228 
	C125.570625,103.069885 126.253662,102.359543 126.924850,101.413261 
z"/>
<path fill="#0990F1" opacity="1.000000" stroke="none" 
	d="
M123.979385,136.019028 
	C126.251709,131.035233 128.547318,126.061882 130.791092,121.065262 
	C134.498505,112.809326 135.454758,104.547783 130.996170,96.183434 
	C129.522171,93.418190 131.822952,93.227959 134.027237,92.802666 
	C134.407364,92.740768 134.770828,92.800865 135.023666,93.245445 
	C136.227432,94.112244 137.178375,94.534462 138.129303,94.956680 
	C138.514999,94.923759 138.900696,94.890831 139.575531,94.882988 
	C142.705246,107.829567 140.968445,120.084106 134.561401,131.678665 
	C133.934799,132.812622 133.548889,134.079605 132.617371,135.660309 
	C130.518982,136.509827 128.854507,136.983871 127.190010,137.457916 
	C127.190010,137.457901 127.223648,137.330765 126.840378,137.283066 
	C125.556686,137.224060 124.656265,137.212753 123.794357,137.179230 
	C123.832878,137.157043 123.811058,137.243240 123.862045,136.938416 
	C123.935143,136.428741 123.957268,136.223892 123.979385,136.019028 
z"/>
<path fill="#1C9FF5" opacity="1.000000" stroke="none" 
	d="
M82.001961,127.999191 
	C81.509270,127.556885 81.016579,127.114578 80.371567,126.484039 
	C83.496773,125.399780 87.082237,125.075264 89.996468,123.504997 
	C100.472786,117.860069 110.722443,111.794472 121.504745,105.919876 
	C121.951729,105.951904 122.166382,106.175438 122.067108,106.508293 
	C119.827126,109.965706 117.495705,112.978477 115.585106,116.237915 
	C111.510056,123.189857 103.848602,123.731201 97.520485,126.651176 
	C96.989792,126.896065 96.213791,126.542953 95.570328,126.620903 
	C92.043266,127.048134 88.522011,127.523201 84.662804,127.988235 
	C83.878700,128.005005 83.430550,128.015366 82.737289,128.019135 
	C82.492180,128.012543 82.001961,127.999191 82.001961,127.999191 
z"/>
<path fill="#22A1F4" opacity="1.000000" stroke="none" 
	d="
M83.189133,95.932587 
	C83.937889,96.230431 84.686646,96.528275 85.946426,97.121605 
	C86.945755,97.620415 87.434052,97.823746 87.922348,98.027077 
	C87.922348,98.027077 87.982986,98.000084 88.212372,98.188507 
	C88.752930,98.560883 89.064095,98.744827 89.375267,98.928780 
	C91.566261,100.056686 93.865143,101.018257 95.922272,102.352547 
	C98.812752,104.227364 99.839264,106.930984 97.946236,110.049538 
	C96.105728,113.081558 93.314957,113.737663 90.219864,112.058281 
	C85.848480,109.686386 81.572174,107.139290 77.273270,104.175949 
	C79.039413,102.857918 80.787498,102.031029 81.692863,101.602768 
	C82.275810,99.393669 82.732475,97.663124 83.189133,95.932587 
z"/>
<path fill="#1998EF" opacity="1.000000" stroke="none" 
	d="
M83.057434,95.609329 
	C82.732475,97.663124 82.275810,99.393669 81.692863,101.602768 
	C80.787498,102.031029 79.039413,102.857918 77.061470,103.905670 
	C75.775131,103.774086 74.718636,103.421661 73.328186,102.986374 
	C74.807350,98.500031 75.283226,94.091187 73.027283,89.345673 
	C76.313408,91.108612 79.619576,93.197334 83.057434,95.609329 
z"/>
<path fill="#1C92E6" opacity="1.000000" stroke="none" 
	d="
M96.034683,70.511261 
	C93.085304,71.483734 89.919350,72.181038 86.355896,72.864769 
	C85.958382,72.851189 85.936096,73.041412 85.936096,73.041412 
	C86.266319,74.474190 86.596550,75.906975 86.930786,77.708488 
	C83.419327,76.081245 81.721588,73.309593 84.214256,69.594398 
	C86.496918,66.192200 89.669144,66.488297 92.870766,68.444618 
	C93.851814,69.044075 94.835594,69.639069 96.034683,70.511261 
z"/>
<path fill="#1C92E6" opacity="1.000000" stroke="none" 
	d="
M102.970291,74.568405 
	C100.380333,74.714577 96.842461,76.145073 96.193665,71.117935 
	C98.388519,71.912178 100.575432,73.104279 102.970291,74.568405 
z"/>
<path fill="#1C92E6" opacity="1.000000" stroke="none" 
	d="
M87.062393,78.375481 
	C88.182014,78.554962 89.437752,79.044121 90.816483,79.865875 
	C89.692482,79.694031 88.445503,79.189590 87.062393,78.375481 
z"/>
<path fill="#1C92E6" opacity="1.000000" stroke="none" 
	d="
M101.243607,86.235802 
	C102.268623,86.501404 103.486519,87.030396 104.822342,87.886894 
	C103.772346,87.642662 102.604424,87.070923 101.243607,86.235802 
z"/>
<path fill="#1C92E6" opacity="1.000000" stroke="none" 
	d="
M111.046936,79.636673 
	C110.209015,79.484756 109.247078,79.020477 108.156990,78.243622 
	C108.993530,78.395470 109.958229,78.859894 111.046936,79.636673 
z"/>
<path fill="#1C92E6" opacity="1.000000" stroke="none" 
	d="
M122.316025,85.579971 
	C121.468071,85.413841 120.401176,84.985718 119.189369,84.225830 
	C120.062004,84.368706 121.079544,84.843330 122.316025,85.579971 
z"/>
<path fill="#1C9FF5" opacity="1.000000" stroke="none" 
	d="
M124.587646,103.871460 
	C124.918114,104.272766 124.948631,104.765305 124.631180,105.634651 
	C123.577606,106.066109 122.871994,106.120773 122.166382,106.175438 
	C122.166382,106.175438 121.951729,105.951904 121.844238,105.840134 
	C122.587067,105.139809 123.437378,104.551262 124.587646,103.871460 
z"/>
<path fill="#0485E9" opacity="1.000000" stroke="none" 
	d="
M137.955475,94.694275 
	C137.178375,94.534462 136.227432,94.112244 135.119827,93.402550 
	C135.902649,93.554001 136.842148,93.992935 137.955475,94.694275 
z"/>
<path fill="#1C92E6" opacity="1.000000" stroke="none" 
	d="
M92.829605,81.393921 
	C93.622612,81.578194 94.612549,82.029572 95.796165,82.758354 
	C95.002068,82.577515 94.014305,82.119278 92.829605,81.393921 
z"/>
<path fill="#1C92E6" opacity="1.000000" stroke="none" 
	d="
M116.997101,82.623871 
	C116.606987,82.694168 116.033882,82.507240 115.226959,82.123146 
	C115.600136,82.072868 116.207123,82.219749 116.997101,82.623871 
z"/>
<path fill="#1C92E6" opacity="1.000000" stroke="none" 
	d="
M114.921555,81.678894 
	C114.519981,81.737854 113.976753,81.513443 113.209839,81.092209 
	C113.584076,81.062096 114.181992,81.228806 114.921555,81.678894 
z"/>
<path fill="#1C92E6" opacity="1.000000" stroke="none" 
	d="
M96.141220,83.271317 
	C96.502861,83.250114 97.040161,83.477951 97.791725,83.910782 
	C97.442955,83.917297 96.879921,83.718826 96.141220,83.271317 
z"/>
<path fill="#1C92E6" opacity="1.000000" stroke="none" 
	d="
M118.928650,83.682068 
	C118.545914,83.710075 117.993561,83.472603 117.222427,83.020950 
	C117.588783,83.010056 118.173897,83.213318 118.928650,83.682068 
z"/>
<path fill="#1C92E6" opacity="1.000000" stroke="none" 
	d="
M98.067291,84.316132 
	C98.445038,84.292084 99.001656,84.527702 99.777466,84.978966 
	C99.413155,84.988335 98.829666,84.782066 98.067291,84.316132 
z"/>
<path fill="#1998EF" opacity="1.000000" stroke="none" 
	d="
M87.751076,97.800247 
	C87.434052,97.823746 86.945755,97.620415 86.240639,97.264122 
	C86.542480,97.265244 87.061142,97.419327 87.751076,97.800247 
z"/>
<path fill="#1C92E6" opacity="1.000000" stroke="none" 
	d="
M104.934769,75.676201 
	C104.547554,75.706383 103.996193,75.465950 103.225662,75.011856 
	C103.594536,75.000648 104.182571,75.203125 104.934769,75.676201 
z"/>
<path fill="#1C92E6" opacity="1.000000" stroke="none" 
	d="
M113.017662,80.717926 
	C112.828934,80.828362 112.568001,80.644211 112.157951,80.261528 
	C112.300827,80.211761 112.613037,80.331879 113.017662,80.717926 
z"/>
<path fill="#1C92E6" opacity="1.000000" stroke="none" 
	d="
M107.979378,77.741844 
	C107.804939,77.842506 107.554184,77.670769 107.159485,77.310791 
	C107.291695,77.266930 107.587524,77.382561 107.979378,77.741844 
z"/>
<path fill="#1C92E6" opacity="1.000000" stroke="none" 
	d="
M106.049751,76.699554 
	C105.890892,76.740517 105.616295,76.523346 105.170509,76.105721 
	C105.310890,76.083984 105.622452,76.262703 106.049751,76.699554 
z"/>
<path fill="#017BE4" opacity="1.000000" stroke="none" 
	d="
M88.889931,51.327812 
	C89.084206,51.224361 89.358864,51.400887 89.806000,51.757370 
	C89.655937,51.806454 89.319885,51.696606 88.889931,51.327812 
z"/>
<path fill="#0485E9" opacity="1.000000" stroke="none" 
	d="
M140.697632,93.923286 
	C140.751205,94.115906 140.524536,94.381134 140.104187,94.823059 
	C140.079468,94.665131 140.248428,94.330513 140.697632,93.923286 
z"/>
<path fill="#1C92E6" opacity="1.000000" stroke="none" 
	d="
M99.915512,85.300613 
	C100.098633,85.226128 100.377190,85.409698 100.831329,85.771263 
	C100.674934,85.819061 100.342941,85.688873 99.915512,85.300613 
z"/>
<path fill="#1998EF" opacity="1.000000" stroke="none" 
	d="
M89.211601,98.693741 
	C89.064095,98.744827 88.752930,98.560883 88.221268,98.220490 
	C88.349838,98.195587 88.698883,98.327141 89.211601,98.693741 
z"/>
<path fill="#1D89DB" opacity="1.000000" stroke="none" 
	d="
M75.873398,150.950775 
	C74.800735,151.123947 72.902695,151.679031 72.779526,151.412857 
	C71.002518,147.572510 69.464035,143.621780 67.839424,139.380920 
	C68.971794,139.558731 70.236359,139.897934 71.269264,140.585266 
	C72.687782,141.529205 73.930786,142.736877 75.598297,143.833099 
	C75.947601,143.834656 76.032074,143.909607 75.926170,144.274750 
	C75.837975,146.743530 75.855690,148.847153 75.873398,150.950775 
z"/>
<path fill="#1D89DB" opacity="1.000000" stroke="none" 
	d="
M64.634720,139.035599 
	C65.260887,140.285187 65.541359,141.564423 65.784653,143.247650 
	C65.107315,142.374237 64.467163,141.096832 63.713146,139.480225 
	C63.829197,139.115784 64.059120,139.090515 64.634720,139.035599 
z"/>
<path fill="#1D89DB" opacity="1.000000" stroke="none" 
	d="
M65.850311,144.206528 
	C66.177711,144.504578 66.506020,145.073181 66.875748,145.972977 
	C66.659355,146.034653 66.401527,145.765152 65.991714,145.256836 
	C65.843559,144.837723 65.847389,144.657394 65.850311,144.206528 
z"/>
<path fill="#1D89DB" opacity="1.000000" stroke="none" 
	d="
M67.113022,147.272278 
	C67.708908,147.868164 68.290916,148.821472 68.639694,149.929932 
	C67.970680,149.266617 67.534912,148.448135 67.113022,147.272278 
z"/>
<path fill="#119AF7" opacity="1.000000" stroke="none" 
	d="
M122.067108,106.508293 
	C122.871994,106.120773 123.577606,106.066109 124.638367,106.004959 
	C128.535370,106.115868 126.841377,108.109299 127.272430,110.198296 
	C128.867538,117.928535 124.493385,122.734924 120.565521,127.963181 
	C117.288376,132.325272 113.748772,136.142380 107.566238,132.628159 
	C107.201088,132.420593 106.434319,132.919571 105.249466,133.267334 
	C106.669342,134.563538 107.678642,135.484909 108.801895,136.692184 
	C108.915855,136.978073 108.477211,137.010056 107.854630,137.015533 
	C105.414307,137.402878 103.596558,137.784744 101.567383,138.098679 
	C101.355949,138.030746 100.955704,137.838196 100.955704,137.838196 
	C100.393425,134.235489 98.451729,135.503494 96.283150,136.308075 
	C91.184402,138.199814 89.055550,136.964493 88.162415,132.259735 
	C86.449036,132.015015 84.847458,131.786270 83.122940,131.278763 
	C83.000000,131.000000 82.999344,131.000885 83.295189,130.869461 
	C84.060280,129.819305 84.529518,128.900558 84.998756,127.981827 
	C88.522011,127.523201 92.043266,127.048134 95.570328,126.620903 
	C96.213791,126.542953 96.989792,126.896065 97.520485,126.651176 
	C103.848602,123.731201 111.510056,123.189857 115.585106,116.237915 
	C117.495705,112.978477 119.827126,109.965706 122.067108,106.508293 
z"/>
<path fill="#2F98E3" opacity="1.000000" stroke="none" 
	d="
M91.994263,151.037277 
	C89.762276,150.896942 87.530296,150.756607 85.066689,149.992920 
	C84.819977,148.901398 84.804878,148.433258 84.826309,147.560745 
	C84.832306,145.810837 84.801781,144.465302 84.771255,143.119751 
	C84.771118,142.617645 84.770981,142.115524 84.779106,141.056824 
	C84.787361,140.500214 84.780266,140.135437 84.780266,140.135437 
	C85.393906,135.347961 88.876976,139.706787 90.787384,138.693893 
	C91.342361,143.055817 91.668312,147.046539 91.994263,151.037277 
z"/>
<path fill="#048AEE" opacity="1.000000" stroke="none" 
	d="
M84.789787,147.965103 
	C84.804878,148.433258 84.819977,148.901398 84.827469,149.722458 
	C82.557045,154.382828 79.468117,151.672745 76.248581,150.995483 
	C75.855690,148.847153 75.837975,146.743530 75.973419,144.305679 
	C77.203011,143.335663 78.279442,142.699875 79.749756,142.369812 
	C80.487366,145.497147 81.603386,147.640396 84.789787,147.965103 
z"/>
<path fill="#4BA8E6" opacity="1.000000" stroke="none" 
	d="
M100.637238,137.980682 
	C100.955704,137.838196 101.355949,138.030746 101.668434,138.335907 
	C102.056068,138.796188 102.131218,138.951309 102.206367,139.106430 
	C102.206367,142.859436 102.206367,146.612442 102.206367,150.365448 
	C101.748108,150.586044 101.289841,150.806641 100.831581,151.027237 
	C99.698341,150.168182 98.565102,149.309113 97.510048,148.069214 
	C97.336174,146.494736 97.084114,145.301102 96.832062,144.107452 
	C97.994301,142.112701 99.156532,140.117950 100.637238,137.980682 
z"/>
<path fill="#AEE5F8" opacity="1.000000" stroke="none" 
	d="
M96.569870,143.917175 
	C97.084114,145.301102 97.336174,146.494736 97.348412,147.752838 
	C96.110367,146.602051 95.112144,145.386826 93.429367,143.338226 
	C93.008202,146.398407 92.729919,148.420425 92.222946,150.739868 
	C91.668312,147.046539 91.342361,143.055817 91.100235,138.624542 
	C92.891937,140.031631 94.599808,141.879257 96.569870,143.917175 
z"/>
<path fill="#0786E9" opacity="1.000000" stroke="none" 
	d="
M84.826309,147.560745 
	C81.603386,147.640396 80.487366,145.497147 80.074699,142.341125 
	C81.484306,142.471817 82.962845,142.936905 84.606323,143.260880 
	C84.801781,144.465302 84.832306,145.810837 84.826309,147.560745 
z"/>
<path fill="#119AF7" opacity="1.000000" stroke="none" 
	d="
M81.679817,128.042450 
	C82.001961,127.999191 82.492180,128.012543 82.742241,128.390488 
	C82.994652,129.512589 82.997002,130.256729 82.999344,131.000885 
	C82.999344,131.000885 83.000000,131.000000 83.000328,130.999695 
	C81.878845,130.520660 80.757027,130.041946 79.635216,129.563217 
	C80.209373,129.070709 80.783524,128.578201 81.679817,128.042450 
z"/>
<path fill="#0786E9" opacity="1.000000" stroke="none" 
	d="
M84.735161,140.221222 
	C84.780266,140.135437 84.787361,140.500214 84.775101,140.680267 
	C84.655602,140.685043 84.631340,140.500610 84.735161,140.221222 
z"/>
<path fill="#D3F4FD" opacity="1.000000" stroke="none" 
	d="
M109.183617,137.637024 
	C111.481537,138.133743 113.736168,139.082077 117.179840,140.530548 
	C117.567162,140.209381 118.978111,139.039429 120.965073,137.618927 
	C122.297745,137.326660 123.054398,137.284943 123.811058,137.243240 
	C123.811058,137.243240 123.832878,137.157043 123.902298,137.619446 
	C123.981300,142.405136 123.990891,146.728439 124.000473,151.051743 
	C118.222885,150.837234 122.517090,146.021835 120.292419,143.731934 
	C119.315262,144.581589 118.177048,145.571274 116.707115,146.849411 
	C115.729652,145.941574 114.708282,144.992935 113.362381,143.890411 
	C113.037865,143.736526 112.652077,143.807114 112.652077,143.807114 
	C112.652077,143.807114 112.980209,144.018463 112.980209,144.018463 
	C112.800735,144.635498 112.657166,145.265793 112.434990,145.867050 
	C111.798355,147.589935 111.129837,149.301010 110.473846,151.016724 
	C109.998024,149.151047 109.279129,147.307419 109.107300,145.414154 
	C108.887596,142.993256 109.109016,140.532318 109.183617,137.637024 
z"/>
<path fill="#288FDA" opacity="1.000000" stroke="none" 
	d="
M124.254181,151.128555 
	C123.990891,146.728439 123.981300,142.405136 123.863770,137.641632 
	C124.656265,137.212753 125.556686,137.224060 126.903061,137.302948 
	C127.286255,141.566635 127.223495,145.762756 127.166183,150.411087 
	C126.283730,150.977325 125.395805,151.091354 124.254181,151.128555 
z"/>
<path fill="#0E93F2" opacity="1.000000" stroke="none" 
	d="
M102.495987,139.177032 
	C102.131218,138.951309 102.056068,138.796188 101.879868,138.403839 
	C103.596558,137.784744 105.414307,137.402878 107.635086,137.027985 
	C108.015785,139.398056 107.993462,141.761124 107.621170,144.539459 
	C106.177376,144.636078 105.083557,144.317459 103.989731,143.998840 
	C103.588364,142.415100 103.186981,140.831375 102.495987,139.177032 
z"/>
<path fill="#0990F1" opacity="1.000000" stroke="none" 
	d="
M103.845062,144.244080 
	C105.083557,144.317459 106.177376,144.636078 107.611725,144.983490 
	C107.893013,145.165466 107.843285,145.323151 107.773064,145.471130 
	C106.966850,147.170120 106.157524,148.867615 105.349030,150.565521 
	C104.799484,148.540115 104.249947,146.514725 103.845062,144.244080 
z"/>
<path fill="#288FDA" opacity="1.000000" stroke="none" 
	d="
M127.632538,137.444183 
	C128.854507,136.983871 130.518982,136.509827 132.580032,136.028687 
	C134.151962,136.267242 135.327347,136.512924 136.777130,136.999100 
	C134.059402,137.303223 131.067230,137.366837 127.632538,137.444183 
z"/>
<path fill="#288FDA" opacity="1.000000" stroke="none" 
	d="
M123.862045,136.938416 
	C123.054398,137.284943 122.297745,137.326660 121.152428,137.367554 
	C121.601341,136.943100 122.438911,136.519470 123.627930,136.057434 
	C123.957268,136.223892 123.935143,136.428741 123.862045,136.938416 
z"/>
<path fill="#0E93F2" opacity="1.000000" stroke="none" 
	d="
M83.295197,130.869461 
	C82.997002,130.256729 82.994652,129.512589 82.987350,128.397079 
	C83.430550,128.015366 83.878700,128.005005 84.662804,127.988235 
	C84.529518,128.900558 84.060280,129.819305 83.295197,130.869461 
z"/>
<path fill="#1698F3" opacity="1.000000" stroke="none" 
	d="
M85.963242,73.016861 
	C85.936096,73.041412 85.958382,72.851189 85.998825,72.894493 
	C86.039268,72.937798 85.990387,72.992302 85.963242,73.016861 
z"/>
<path fill="#0786E9" opacity="1.000000" stroke="none" 
	d="
M112.990852,144.007721 
	C112.980209,144.018463 112.652077,143.807114 112.652077,143.807114 
	C112.652077,143.807114 113.037865,143.736526 113.030853,143.856323 
	C113.023849,143.976135 113.001495,143.996994 112.990852,144.007721 
z"/>
</svg>